<svg id="Account_box" data-name="Account box" xmlns="http://www.w3.org/2000/svg" width="16" height="16" viewBox="0 0 16 16">
  <path id="ic_account_box_24px" d="M3,4.778V17.222A1.777,1.777,0,0,0,4.778,19H17.222A1.783,1.783,0,0,0,19,17.222V4.778A1.783,1.783,0,0,0,17.222,3H4.778A1.777,1.777,0,0,0,3,4.778ZM13.667,8.333A2.667,2.667,0,1,1,11,5.667,2.663,2.663,0,0,1,13.667,8.333Zm-8,7.111c0-1.778,3.556-2.756,5.333-2.756s5.333.978,5.333,2.756v.889H5.667Z" transform="translate(-3 -3)" fill="#788190"/>
</svg>
