<svg xmlns="http://www.w3.org/2000/svg" width="16" height="16" viewBox="0 0 16 16">
  <g id="Group_1049" data-name="Group 1049" transform="translate(-56 -120)">
    <path id="Path_4560" data-name="Path 4560" d="M8,0A8,8,0,1,1,0,8,8,8,0,0,1,8,0Z" transform="translate(56 120)" fill="#fff"/>
    <path id="ic_stars_24px" d="M9.992,2A8,8,0,1,0,18,10,8,8,0,0,0,9.992,2Zm3.392,12.8L10,12.76,6.616,14.8l.9-3.848L4.528,8.368l3.936-.336L10,4.4l1.536,3.624,3.936.336-2.984,2.584Z" transform="translate(54 118)" fill="#269a3e"/>
  </g>
</svg>
