<svg id="ic_center_focus_weak_24px" xmlns="http://www.w3.org/2000/svg" width="16" height="16" viewBox="0 0 16 16">
  <path id="ic_center_focus_weak_24px-2" data-name="ic_center_focus_weak_24px" d="M4.778,13.667H3v3.556A1.783,1.783,0,0,0,4.778,19H8.333V17.222H4.778Zm0-8.889H8.333V3H4.778A1.783,1.783,0,0,0,3,4.778V8.333H4.778ZM17.222,3H13.667V4.778h3.556V8.333H19V4.778A1.783,1.783,0,0,0,17.222,3Zm0,14.222H13.667V19h3.556A1.783,1.783,0,0,0,19,17.222V13.667H17.222ZM11,7.444A3.556,3.556,0,1,0,14.556,11,3.555,3.555,0,0,0,11,7.444Zm0,5.333A1.778,1.778,0,1,1,12.778,11,1.783,1.783,0,0,1,11,12.778Z" transform="translate(-3 -3)" fill="#788190"/>
</svg>
