<svg xmlns="http://www.w3.org/2000/svg" width="15.983" height="15.983" viewBox="0 0 15.983 15.983">
  <path id="ic_language_24px" d="M9.983,2a7.991,7.991,0,1,0,8,7.991A7.988,7.988,0,0,0,9.983,2Zm5.538,4.795H13.164a12.506,12.506,0,0,0-1.1-2.845A6.417,6.417,0,0,1,15.521,6.795ZM9.991,3.63a11.257,11.257,0,0,1,1.526,3.165H8.465A11.257,11.257,0,0,1,9.991,3.63ZM3.806,11.59a6.251,6.251,0,0,1,0-3.2h2.7a13.2,13.2,0,0,0-.112,1.6,13.2,13.2,0,0,0,.112,1.6Zm.655,1.6H6.819a12.506,12.506,0,0,0,1.1,2.845A6.383,6.383,0,0,1,4.461,13.188ZM6.819,6.795H4.461A6.383,6.383,0,0,1,7.922,3.95a12.506,12.506,0,0,0-1.1,2.845Zm3.173,9.558a11.257,11.257,0,0,1-1.526-3.165h3.053A11.257,11.257,0,0,1,9.991,16.353Zm1.87-4.763H8.121a11.758,11.758,0,0,1-.128-1.6,11.656,11.656,0,0,1,.128-1.6h3.74a11.656,11.656,0,0,1,.128,1.6A11.758,11.758,0,0,1,11.861,11.59Zm.2,4.443a12.506,12.506,0,0,0,1.1-2.845h2.357A6.417,6.417,0,0,1,12.061,16.033Zm1.414-4.443a13.2,13.2,0,0,0,.112-1.6,13.2,13.2,0,0,0-.112-1.6h2.7a6.251,6.251,0,0,1,0,3.2Z" transform="translate(-2 -2)" fill="#788190"/>
</svg>
