<svg xmlns="http://www.w3.org/2000/svg" width="20.651" height="13.658" viewBox="0 0 20.651 13.658">
  <g id="mc_symbol" opacity="0.9">
    <g id="Group_766" data-name="Group 766" opacity="0">
      <rect id="Rectangle_1471" data-name="Rectangle 1471" width="20.651" height="13.658" fill="#fff"/>
    </g>
    <rect id="Rectangle_1472" data-name="Rectangle 1472" width="5.448" height="8.897" transform="translate(7.602 2.38)" fill="#ff5f00"/>
    <path id="Path_811" data-name="Path 811" d="M14.439,13.112A5.649,5.649,0,0,1,16.6,8.664a5.658,5.658,0,1,0,0,8.9,5.649,5.649,0,0,1-2.161-4.449Z" transform="translate(-6.275 -6.283)" fill="#eb001b"/>
    <path id="Path_812" data-name="Path 812" d="M119.918,64.58V64.4H120V64.36h-.187V64.4h.074v.182Zm.363,0v-.22h-.057l-.066.157-.066-.157h-.057v.22h.041v-.167l.061.143h.042l.061-.143v.167Z" transform="translate(-100.979 -54.245)" fill="#f79e1b"/>
    <path id="Path_813" data-name="Path 813" d="M74.845,13.1a5.658,5.658,0,0,1-9.155,4.448,5.658,5.658,0,0,0,0-8.9A5.658,5.658,0,0,1,74.845,13.1Z" transform="translate(-55.365 -6.271)" fill="#f79e1b"/>
  </g>
</svg>
