<svg xmlns="http://www.w3.org/2000/svg" width="16" height="16" viewBox="0 0 16 16">
  <path id="Path_4512" data-name="Path 4512" d="M15.429,4H12.571V.571A.571.571,0,0,0,12,0H.571A.571.571,0,0,0,0,.571V13.714A2.286,2.286,0,0,0,2.286,16H13.714A2.286,2.286,0,0,0,16,13.714V4.571A.571.571,0,0,0,15.429,4ZM4.571,2.857H8A.571.571,0,0,1,8,4H4.571a.571.571,0,1,1,0-1.143ZM9.714,13.714H2.857a.571.571,0,1,1,0-1.143H9.714a.571.571,0,0,1,0,1.143Zm0-2.286H2.857a.571.571,0,1,1,0-1.143H9.714a.571.571,0,0,1,0,1.143Zm0-2.286H2.857A.571.571,0,1,1,2.857,8H9.714a.571.571,0,0,1,0,1.143Zm0-2.286H2.857a.571.571,0,1,1,0-1.143H9.714a.571.571,0,0,1,0,1.143Zm5.143,6.857a1.143,1.143,0,0,1-2.286,0V5.143h2.286v8.571Z" fill="#5a616f"/>
</svg>
