<svg id="report" xmlns="http://www.w3.org/2000/svg" width="16" height="15.059" viewBox="0 0 16 15.059">
  <path id="Path_4557" data-name="Path 4557" d="M11.976,29.887V16.757a.47.47,0,0,0-.469-.471H.469A.47.47,0,0,0,0,16.757V28.944A2.353,2.353,0,0,0,2.345,31.3h10.1A2.35,2.35,0,0,1,11.976,29.887ZM2.5,25.332H4a.471.471,0,0,1,0,.942H2.5a.471.471,0,0,1,0-.942Zm-.469-1.539a.47.47,0,0,1,.469-.471H4a.471.471,0,0,1,0,.942H2.5A.47.47,0,0,1,2.033,23.793Zm7.473,5.246h-7a.471.471,0,0,1,0-.942h7a.471.471,0,0,1,0,.942Zm.469-2.481a.47.47,0,0,1-.469.471H6a.47.47,0,0,1-.469-.471V23.039A.47.47,0,0,1,6,22.568h3.5a.47.47,0,0,1,.469.471ZM9.506,21.5h-7a.471.471,0,0,1,0-.942h7a.471.471,0,0,1,0,.942Zm0-2.01h-7a.471.471,0,0,1,0-.942h7a.471.471,0,0,1,0,.942Z" transform="translate(0 -16.286)" fill="#5a616f"/>
  <path id="Path_4558" data-name="Path 4558" d="M207,246.286h2.557v2.557H207Z" transform="translate(-200.528 -239.051)" fill="#5a616f"/>
  <path id="Path_4559" data-name="Path 4559" d="M415.611,120.286h-2.619c0,10.6,0,10.258,0,10.258a1.543,1.543,0,0,0,3.082-.034s0,.234,0-9.756A.468.468,0,0,0,415.611,120.286Z" transform="translate(-400.078 -116.933)" fill="#5a616f"/>
</svg>
