<svg xmlns="http://www.w3.org/2000/svg" width="37" height="11.217" viewBox="0 0 37 11.217">
  <g id="visa" transform="translate(0 0)" opacity="0.9">
    <path id="Path_796" data-name="Path 796" d="M184.8,190.971l1.879-10.571h2.937L187.8,190.971Z" transform="translate(-171.233 -180.048)" fill="#3c58bf"/>
    <path id="Path_797" data-name="Path 797" d="M184.8,190.971l2.408-10.571h2.408L187.8,190.971Z" transform="translate(-171.233 -180.048)" fill="#293688"/>
    <path id="Path_798" data-name="Path 798" d="M256.986,176.07a7.448,7.448,0,0,0-2.7-.47c-2.936,0-5.051,1.468-5.051,3.583,0,1.586,1.468,2.408,2.643,2.937s1.527.881,1.527,1.351c0,.7-.94,1.057-1.762,1.057a6.383,6.383,0,0,1-2.819-.587l-.411-.176L248,186.171a9.522,9.522,0,0,0,3.348.587c3.113,0,5.168-1.468,5.168-3.7,0-1.233-.763-2.173-2.525-2.937-1.057-.529-1.7-.822-1.7-1.351,0-.47.529-.94,1.7-.94a5.387,5.387,0,0,1,2.232.411l.294.117.47-2.29Z" transform="translate(-229.794 -175.6)" fill="#3c58bf"/>
    <path id="Path_799" data-name="Path 799" d="M256.986,176.07a7.448,7.448,0,0,0-2.7-.47c-2.936,0-4.522,1.468-4.522,3.583a3.07,3.07,0,0,0,2.114,2.937c1.175.529,1.527.881,1.527,1.351,0,.7-.94,1.057-1.762,1.057a6.383,6.383,0,0,1-2.819-.587l-.411-.176L248,186.171a9.522,9.522,0,0,0,3.348.587c3.113,0,5.168-1.468,5.168-3.7,0-1.233-.763-2.173-2.525-2.937-1.057-.529-1.7-.822-1.7-1.351,0-.47.529-.94,1.7-.94a5.387,5.387,0,0,1,2.232.411l.294.117.47-2.29Z" transform="translate(-229.794 -175.6)" fill="#293688"/>
    <path id="Path_800" data-name="Path 800" d="M364.332,180.4c-.7,0-1.233.059-1.527.763l-4.4,9.808h3.171l.587-1.762h3.759l.352,1.762h2.819L366.622,180.4Zm-1.351,7.048c.176-.529,1.175-3.113,1.175-3.113s.235-.646.411-1.057l.176,1s.587,2.643.7,3.23h-2.467Z" transform="translate(-332.089 -180.048)" fill="#3c58bf"/>
    <path id="Path_801" data-name="Path 801" d="M365.036,180.4c-.7,0-1.233.059-1.527.763l-5.109,9.808h3.171l.587-1.762h3.759l.352,1.762h2.819L366.622,180.4Zm-2.056,7.048c.235-.587,1.175-3.113,1.175-3.113s.235-.646.411-1.057l.176,1s.587,2.643.7,3.23h-2.467Z" transform="translate(-332.089 -180.048)" fill="#293688"/>
    <path id="Path_802" data-name="Path 802" d="M55.6,188.541l-.294-1.527a8.514,8.514,0,0,0-4.111-4.64l2.643,9.4h3.171L61.771,181.2H58.6Z" transform="translate(-47.441 -180.789)" fill="#3c58bf"/>
    <path id="Path_803" data-name="Path 803" d="M55.6,188.541l-.294-1.527a8.514,8.514,0,0,0-4.111-4.64l2.643,9.4h3.171L61.771,181.2H59.187Z" transform="translate(-47.441 -180.789)" fill="#293688"/>
    <path id="Path_804" data-name="Path 804" d="M0,180.4l.529.117c3.759.881,6.343,3.113,7.341,5.756l-1.057-4.992c-.176-.7-.7-.881-1.351-.881Z" transform="translate(0 -180.048)" fill="#ffbc00"/>
    <path id="Path_805" data-name="Path 805" d="M0,180.4H0c3.759.881,6.871,3.171,7.87,5.814l-1-4.17a1.434,1.434,0,0,0-1.41-1.116Z" transform="translate(0 -180.048)" fill="#f7981d"/>
    <path id="Path_806" data-name="Path 806" d="M0,180.4H0c3.759.881,6.871,3.171,7.87,5.814l-.7-2.29a2.071,2.071,0,0,0-1.233-1.7Z" transform="translate(0 -180.048)" fill="#ed7c00"/>
    <g id="Group_765" data-name="Group 765" transform="translate(3.817 1.527)">
      <path id="Path_807" data-name="Path 807" d="M59.283,202.273l-2-2-.94,2.232-.235-1.468A8.514,8.514,0,0,0,52,196.4l2.643,9.4h3.171Z" transform="translate(-52 -196.4)" fill="#051244"/>
      <path id="Path_808" data-name="Path 808" d="M187.8,291.784,185.27,289.2l-.47,2.584Z" transform="translate(-175.051 -282.387)" fill="#051244"/>
      <path id="Path_809" data-name="Path 809" d="M253.109,274.8h0c.235.235.352.411.294.646,0,.7-.94,1.057-1.762,1.057a6.383,6.383,0,0,1-2.819-.587l-.411-.176L248,278.148a9.523,9.523,0,0,0,3.348.587,5.815,5.815,0,0,0,4.287-1.468Z" transform="translate(-233.611 -269.044)" fill="#051244"/>
      <path id="Path_810" data-name="Path 810" d="M364,227.294h2.76l.587-1.762h3.759l.352,1.762h2.819l-1-4.287-3.524-3.406.176.94s.587,2.643.7,3.23H368.17c.235-.587,1.175-3.113,1.175-3.113s.235-.646.411-1.057" transform="translate(-341.095 -217.897)" fill="#051244"/>
    </g>
  </g>
</svg>
