<svg xmlns="http://www.w3.org/2000/svg" xmlns:xlink="http://www.w3.org/1999/xlink" width="244.673" height="175.214" viewBox="0 0 244.673 175.214">
  <defs>
    <linearGradient id="linear-gradient" x1="0.5" y1="1" x2="0.5" gradientUnits="objectBoundingBox">
      <stop offset="0" stop-color="gray" stop-opacity="0.251"/>
      <stop offset="0.54" stop-color="gray" stop-opacity="0.122"/>
      <stop offset="1" stop-color="gray" stop-opacity="0.102"/>
    </linearGradient>
    <linearGradient id="linear-gradient-2" x1="0.5" x2="0.5" y2="0" xlink:href="#linear-gradient"/>
    <linearGradient id="linear-gradient-3" x1="0.5" x2="0.5" y2="0" xlink:href="#linear-gradient"/>
    <linearGradient id="linear-gradient-4" x1="1.096" x2="1.096" y2="0" xlink:href="#linear-gradient"/>
  </defs>
  <g id="team_spirit_hrr4" transform="translate(0.013 -0.004)">
    <path id="Path_1879" data-name="Path 1879" d="M43.44,426.65c3.871,15.087,12.067,28.128,25.02,34.448,26.93,13.138,87.627,6.362,132.933-1.415,23.442-4.024,44.032-15.119,59-30.754Z" transform="translate(-40.809 -339.223)" fill="#269a3e" opacity="0.1"/>
    <path id="Path_1880" data-name="Path 1880" d="M303.874,36.556H279.016a1.968,1.968,0,1,1,0-3.918h4.3a1.967,1.967,0,1,1,0-3.916h-3.069a1.968,1.968,0,1,1,0-3.918h12.975A36.759,36.759,0,0,0,283.1,22.261c-35.38-4.144-48.012-1.4-52.475,1.415a52.068,52.068,0,0,1-18.183,7.267c-21.829,4.106-62.651,9.045-99.653-1.583C94.4,24.081,80.734,33.017,72.54,47.922H308.191a32.43,32.43,0,0,0-2.918-11.843A2.254,2.254,0,0,1,303.874,36.556Z" transform="translate(-63.651 -20.14)" fill="#269a3e" opacity="0.1"/>
    <path id="Path_1881" data-name="Path 1881" d="M31.681,280.23a91.173,91.173,0,0,0,.966,26.321l218.261,7.278a93.153,93.153,0,0,0,15.164-21.076ZM118,299.007h-4.3a1.967,1.967,0,1,1,0,3.916H88.851a1.967,1.967,0,1,1,0-3.916h4.3a1.968,1.968,0,1,1,0-3.918H90.079a1.967,1.967,0,1,1,0-3.916h24.859a1.967,1.967,0,1,1,0,3.916H118a1.968,1.968,0,1,1,0,3.918Z" transform="translate(-31.16 -224.292)" fill="#269a3e" opacity="0.1"/>
    <path id="Path_1882" data-name="Path 1882" d="M277.777,149.94,39.49,155.224a80.034,80.034,0,0,0-5.71,22.435H273.6a85.805,85.805,0,0,0,3.462-14.3A61.943,61.943,0,0,0,277.777,149.94ZM82.162,167.255h-4.3a1.968,1.968,0,1,1,0,3.918H53a1.968,1.968,0,1,1,0-3.918h4.3a1.967,1.967,0,1,1,0-3.916H54.232a1.968,1.968,0,1,1,0-3.918H79.091a1.968,1.968,0,1,1,0,3.918h3.071a1.967,1.967,0,1,1,0,3.916Z" transform="translate(-33.227 -122.022)" fill="#269a3e" opacity="0.1"/>
    <ellipse id="Ellipse_522" data-name="Ellipse 522" cx="16.179" cy="3.632" rx="16.179" ry="3.632" transform="translate(126.684 157.653)" fill="#269a3e" opacity="0.1"/>
    <ellipse id="Ellipse_523" data-name="Ellipse 523" cx="29.188" cy="2.396" rx="29.188" ry="2.396" transform="translate(151.27 170.426)" fill="#269a3e" opacity="0.1"/>
    <ellipse id="Ellipse_524" data-name="Ellipse 524" cx="29.188" cy="3.632" rx="29.188" ry="3.632" transform="translate(34.077 165.557)" fill="#269a3e" opacity="0.1"/>
    <ellipse id="Ellipse_525" data-name="Ellipse 525" cx="21.962" cy="3.632" rx="21.962" ry="3.632" transform="translate(85.806 147.373)" fill="#269a3e" opacity="0.1"/>
    <path id="Path_1883" data-name="Path 1883" d="M453.935,178.274c-.465-3.127-3.305-10.424-3.305-10.424h0q-.074-.323-.168-.645c-2.015-6.925-4.8-7.527-4.8-7.527l-9.992-2.151a.774.774,0,0,1,.215.2,1.387,1.387,0,0,0-.157.024,3.913,3.913,0,0,1-.875-1.893c-.019-.1-.037-.215-.049-.32a7.028,7.028,0,0,0-.572-10.566c-.105-.082-.215-.161-.32-.237a1.593,1.593,0,0,0,.133-1.895,6.6,6.6,0,0,0-4.258-3.174,7.219,7.219,0,0,0-4.134-.088,14.932,14.932,0,0,0-2.163,1,12.162,12.162,0,0,0-3.787,2.277,1.111,1.111,0,0,0-.379.914,2.466,2.466,0,0,0,.376.665,2.006,2.006,0,0,1,.019,1.665,16.13,16.13,0,0,0-.617,1.6,1.673,1.673,0,0,0,.333,1.607,7.085,7.085,0,0,0,.624.43,3.27,3.27,0,0,1,.6.669q.594.8,1.183,1.6a16.453,16.453,0,0,1,1.482,2.252,10.98,10.98,0,0,0,.916,1.72,2.552,2.552,0,0,0,.394.413l-.116-.045a1.792,1.792,0,0,0,1.314.535h.06a.361.361,0,0,0,.241-.1V157c.024.768.019,1.585-.034,2.353L426,159.3a.806.806,0,0,0-.86.09l-9.2,7.381a12.114,12.114,0,0,0-1.72,7.458l-1.613,7.082s-2.015,6.009-.465,10.3,2.45,6.744,2.45,6.744.619,4.875,1.551,5.273,1.333.613,1.333.613l.185,1.166h0s.062.114.172.305c.677,1.179,3.187,5.338,4.645,4.893a18.64,18.64,0,0,1,.237,3.417l1.443,9.688a14.252,14.252,0,0,1,.944,4.015,7.652,7.652,0,0,0,1.174,3.348,6.4,6.4,0,0,0-.619,4.506c.589,2.581,1.333,14.469,1.333,14.469l1.075,2.882-.03,3.379a3.226,3.226,0,0,1-.667,1.505c-.7.757-.645,1.632-2.325,2.667s-2.744,1.426-2.744,2.8a3.594,3.594,0,0,1-.052.57c-.155,1.006-.456,1.553,2.632,1.845a8.142,8.142,0,0,0,6.047-2.022s.533-.968,3.045-1.359c0,0,.86-.045.905-.8.017-.262.013-.763,0-1.316a8.1,8.1,0,0,0-.275-2.34,5.1,5.1,0,0,1-.561-1.516h.7a30.58,30.58,0,0,0,0-8.033,13.031,13.031,0,0,1-.062-5.4l-.125-8.338a2.382,2.382,0,0,1-.185-2.546c.675-1.626,0-9.656,0-9.656s.25-2.882.961-3.557.034-4.222,0-4.407l1.269,4.256s.557,8.461,1.738,9.992l.34,3.832s2.417,3.527,1.953,5.426.5,8.768.5,8.768V253.7s-1.086,2.819.43,3.832l.645-.026c-.215.2-.381.5-.632.761a5.814,5.814,0,0,0-.548,2.415c-.077.828-.1,1.54-.1,1.54a2.535,2.535,0,0,0,1.86,1.1c1.215.071,5.22,3.116,5.22,3.116a47.363,47.363,0,0,0,4.979-.215l.06-.015a1.344,1.344,0,0,0,.772-.63,1.613,1.613,0,0,0,.185-1.159,2.894,2.894,0,0,0-1.669-1.83c-2.643-1.394-3.037-2.7-3.037-2.7l-1.736-2.6h.247a11.141,11.141,0,0,1,1.736-5.856l-.123-13.641s.774-4.69-.557-7.237c0,0-.11-2.7.781-3.525s-1.185-9.2-1.185-9.2-.43-4.493-.935-8.592h0c2.092,1.985,4.262-5.161,4.628-6.432h.054l-.024-.092c.015-.06.024-.09.024-.09h0s-.465-1.652-.125-1.316,1.179-.92,1.179-.92-.125-6.837,1.333-10.282S453.935,178.274,453.935,178.274Zm-6.237,4.351.011-.019c.215,4.174-.041,13.082-.041,13.082s-.288,1.142-.6,2.486l-.215-8.463h0l-.215-7.972Zm-26.691-2.878s1.054,13.181,0,15.082a9.957,9.957,0,0,0-.759,2.6c-.348-.914-1.086-3.06-.822-4.2.342-1.471-.682-5.336-.682-5.426a9.167,9.167,0,0,1,.645-3.725c.738-1.574.254-2.256.254-2.256S420.263,179.248,421.007,179.747Z" transform="translate(-329.756 -113.682)" fill="url(#linear-gradient)"/>
    <path id="Path_1884" data-name="Path 1884" d="M447.12,441.451c-.918,4.037-4.57-2.067-5.4-3.531-.108-.191-.168-.3-.168-.3l.4-1.856,2.092-.86a5.85,5.85,0,0,1,.938.611A5.653,5.653,0,0,1,447.12,441.451Z" transform="translate(-353.301 -345.698)" fill="#d38884"/>
    <path id="Path_1885" data-name="Path 1885" d="M577.215,430.874a.282.282,0,0,1-.024.09.458.458,0,0,1-.028.1c-.359,1.26-2.488,8.355-4.544,6.385-2.25-2.151-1.157-7.123-1.157-7.123h.015l4.731-.484.938.964h0Z" transform="translate(-455.066 -341.726)" fill="#d38884"/>
    <path id="Path_1886" data-name="Path 1886" d="M480.821,467.783l.12,13.549a11.112,11.112,0,0,0-1.7,5.807l-6.116.241c-1.492-1-.43-3.8-.43-3.8V476.6s-.944-6.815-.488-8.7-1.916-5.376-1.916-5.376l-.335-3.8c-1.157-1.52-1.705-9.919-1.705-9.919l-1.241-4.241c.034.183.68,3.723,0,4.374s-.944,3.529-.944,3.529.669,7.975,0,9.585a2.373,2.373,0,0,0,.181,2.527l.123,8.278a12.943,12.943,0,0,0,.06,5.355,30.447,30.447,0,0,1,0,7.974h-6.562l.03-3.379-1.062-2.86s-.731-11.807-1.31-14.364a6.417,6.417,0,0,1,.606-4.473,7.612,7.612,0,0,1-1.155-3.316,14.183,14.183,0,0,0-.938-3.983l-1.415-9.615a18.681,18.681,0,0,0-.7-5.478c-.822-2.74-2.039-6.331-2.039-6.331l1.374.123,6.934.617s16.859-1.133,17.614-.191a3.163,3.163,0,0,1,.318.983c.757,3.4,1.757,14.052,1.757,14.052s2.039,8.308,1.163,9.129-.768,3.5-.768,3.5C481.584,463.116,480.821,467.783,480.821,467.783Z" transform="translate(-361.41 -343.72)" fill="#444053"/>
    <path id="Path_1887" data-name="Path 1887" d="M474.625,682.906c-.047.755-.888.8-.888.8-2.465.387-2.989,1.346-2.989,1.346a7.916,7.916,0,0,1-5.934,2.009c-3.032-.292-2.738-.832-2.581-1.832a3.789,3.789,0,0,0,.049-.563c0-1.37,1.05-1.759,2.693-2.8s1.6-1.895,2.282-2.647a4.2,4.2,0,0,0,.755-2.213c.774-1.348,2.738.215,2.738.215.092.477,3.011.411,3.011.411a6.426,6.426,0,0,0,.587,1.643,8.075,8.075,0,0,1,.269,2.323C474.638,682.149,474.642,682.646,474.625,682.906Z" transform="translate(-369.466 -535.309)" fill="#b07473"/>
    <path id="Path_1888" data-name="Path 1888" d="M474.625,701.681c-.047.755-.888.8-.888.8-2.465.387-2.989,1.346-2.989,1.346a7.916,7.916,0,0,1-5.934,2.009c-3.032-.293-2.738-.832-2.581-1.832,1.355.336,3.944.8,5.456-.017,2.1-1.14,3.609-1.936,3.609-1.936l3.321-1.671C474.638,700.924,474.642,701.421,474.625,701.681Z" transform="translate(-369.466 -554.084)" opacity="0.1"/>
    <path id="Path_1889" data-name="Path 1889" d="M560.419,690.147a1.312,1.312,0,0,1-.757.626l-.058.015a45.589,45.589,0,0,1-4.886.215s-3.925-3.035-5.112-3.1a2.5,2.5,0,0,1-1.826-1.1s.024-.706.1-1.527a5.828,5.828,0,0,1,.54-2.4c.525-.549.645-1.29,1.826-.822,0,0,1.686-2.972,3.673-.675l2.056,3.118s.387,1.29,2.991,2.69a2.885,2.885,0,0,1,1.637,1.817A1.6,1.6,0,0,1,560.419,690.147Z" transform="translate(-436.685 -538.487)" fill="#b07473"/>
    <path id="Path_1890" data-name="Path 1890" d="M560.419,707.541c-.232.2-.488.406-.757.626l-.058.015a45.641,45.641,0,0,1-4.886.215s-3.925-3.034-5.112-3.1a2.5,2.5,0,0,1-1.826-1.1s.024-.705.1-1.527c1.209.361,3.039,1,3.529,1.688a14.954,14.954,0,0,0,3.039,2.51s4.263-.411,6.155-.467A1.6,1.6,0,0,1,560.419,707.541Z" transform="translate(-436.685 -555.881)" opacity="0.1"/>
    <path id="Path_1891" data-name="Path 1891" d="M487.931,205.478l-5.613,5.934s-6.8-.5-5.615-2.51c.6-1.024.7-3.166.645-5.028-.049-1.8-.234-3.325-.234-3.325s9.54-4.749,8.817-.32a7.288,7.288,0,0,0-.026,2.527A3.312,3.312,0,0,0,487.931,205.478Z" transform="translate(-380.785 -160.013)" fill="#d38884"/>
    <path id="Path_1892" data-name="Path 1892" d="M487.929,200.228a7.289,7.289,0,0,0-.026,2.527,7,7,0,0,1-4.994,2.084c-1.29,0-2.686-1.06-3.729-1.673-.049-1.8-.06-2.617-.06-2.617S488.66,195.8,487.929,200.228Z" transform="translate(-382.791 -160.013)" opacity="0.1"/>
    <path id="Path_1893" data-name="Path 1893" d="M478.1,168.519a7.03,7.03,0,1,1-2.645-5.493A7.03,7.03,0,0,1,478.1,168.519Z" transform="translate(-370.953 -131.089)" fill="#d38884"/>
    <path id="Path_1894" data-name="Path 1894" d="M482,434.343c-1.751,4.166-13.011,4.252-13.011,4.252v-4.542l-.682-.045a15.643,15.643,0,0,1-.413,4.473c-8.9,1.256-11.069-3.815-11.069-3.815l.31-1.736,6.934.617s16.859-1.133,17.614-.191A3.165,3.165,0,0,1,482,434.343Z" transform="translate(-365.295 -344.152)" opacity="0.1"/>
    <path id="Path_1895" data-name="Path 1895" d="M468.994,276.859v-4.542l-.682-.043c.295,1.29-.413,4.473-.413,4.473-6.7.944-9.583-1.693-10.6-3.056a4.161,4.161,0,0,1-.469-.757l2.718-15.291.645-22.5.974-3.949.226-1.895v-.022h.024l.693.3,4.144,1.791,4.708-3.555.069-.049.234-.179.389.312.968.776,3.1,20.042s5.377,15.431,6.383,21.659c.041.249.073.482.1.7C482.872,276.754,468.994,276.859,468.994,276.859Z" transform="translate(-365.295 -182.965)" fill="#269a3e"/>
    <circle id="Ellipse_527" data-name="Ellipse 527" cx="0.4" cy="0.4" r="0.4" transform="translate(101.062 48.441)" fill="#67647e"/>
    <circle id="Ellipse_528" data-name="Ellipse 528" cx="0.4" cy="0.4" r="0.4" transform="translate(101.247 52.093)" fill="#67647e"/>
    <circle id="Ellipse_529" data-name="Ellipse 529" cx="0.4" cy="0.4" r="0.4" transform="translate(101.647 58.005)" fill="#67647e"/>
    <circle id="Ellipse_530" data-name="Ellipse 530" cx="0.4" cy="0.4" r="0.4" transform="translate(102.307 64.373)" fill="#67647e"/>
    <circle id="Ellipse_531" data-name="Ellipse 531" cx="0.4" cy="0.4" r="0.4" transform="translate(102.707 70.352)" fill="#67647e"/>
    <circle id="Ellipse_532" data-name="Ellipse 532" cx="0.4" cy="0.4" r="0.4" transform="translate(103.107 76.72)" fill="#67647e"/>
    <circle id="Ellipse_533" data-name="Ellipse 533" cx="0.4" cy="0.4" r="0.4" transform="translate(102.948 83.019)" fill="#67647e"/>
    <path id="Path_1896" data-name="Path 1896" d="M461.652,265.822s-.447,5.856-1.269,7.559-1.187,6.482-1.187,6.482l-1.908-.215a4.164,4.164,0,0,1-.469-.757l2.718-15.291.645-22.5.976-3.951.226-1.895.026-.011a.77.77,0,0,1,.68.011l.09.047q-.041.116-.077.239a36.559,36.559,0,0,0-1.022,6.622s1.075,7.852,1.187,11.5S461.652,265.822,461.652,265.822Z" transform="translate(-365.287 -188.92)" opacity="0.1"/>
    <path id="Path_1897" data-name="Path 1897" d="M444.976,435.517a1.1,1.1,0,0,1-.073.142,6.847,6.847,0,0,1-3.185,2.26c-.108-.191-.168-.3-.168-.3l.4-1.856,2.092-.86A5.849,5.849,0,0,1,444.976,435.517Z" transform="translate(-353.301 -345.698)" opacity="0.1"/>
    <path id="Path_1898" data-name="Path 1898" d="M418.037,298.81l-1.736,1.034-1.581,7.03s-1.979,5.964-.458,10.224,2.4,6.7,2.4,6.7.609,4.839,1.523,5.235,1.308.609,1.308.609l.183,1.157s2.477-.841,3.353-2.323-.645-5.161-.645-5.161-1.308-3.136-.972-4.6-.671-5.295-.671-5.376a9.112,9.112,0,0,1,.645-3.7c.736-1.568.245-2.237.245-2.237l-.458-4.473Z" transform="translate(-331.432 -238.876)" fill="#67647e"/>
    <path id="Path_1899" data-name="Path 1899" d="M533.319,272.4s-4.6,1.733-6.056.215-1.31-8.643-1.31-8.643-1.4-13.147-2.282-15.306-.43-17.743-.43-17.743a9.444,9.444,0,0,0-1.112-2.542.565.565,0,0,0-.11-.088l.178.039.624.133.968.776,3.1,20.042s5.376,15.431,6.383,21.659Z" transform="translate(-416.465 -183.522)" opacity="0.1"/>
    <path id="Path_1900" data-name="Path 1900" d="M578.167,431.042h-.052c-.579.075-5.684.693-5.706-.37a3.136,3.136,0,0,1,.019-.368l4.731-.484.938.963h0c.017.062.03.116.043.159Z" transform="translate(-456.018 -341.711)" opacity="0.1"/>
    <path id="Path_1901" data-name="Path 1901" d="M573.267,266.07l3.355,1.751s2.8,7.239,3.243,10.342c0,0,2.071,8.314.645,11.734S579.2,300.1,579.2,300.1s-.822,1.247-1.157.914.123,1.308.123,1.308-5.736.761-5.759-.366a58.824,58.824,0,0,1,1.316-6.512s.366-12.811-.153-14.82S573.267,266.07,573.267,266.07Z" transform="translate(-456.017 -213.177)" fill="#67647e"/>
    <path id="Path_1902" data-name="Path 1902" d="M519.853,329.52s-1.888,4.624-2.5,4.929.123,1.52.123,1.52S520.918,331.163,519.853,329.52Z" transform="translate(-412.615 -262.981)" opacity="0.1"/>
    <path id="Path_1903" data-name="Path 1903" d="M513.859,254.091c.022-.088-2.252,2.23-2.86,2.581S513.221,256.65,513.859,254.091Z" transform="translate(-407.748 -203.772)" opacity="0.1"/>
    <path id="Path_1904" data-name="Path 1904" d="M484.039,327.82s-3.469,2.243-3.011,3.131S484.039,327.82,484.039,327.82Z" transform="translate(-384.256 -261.647)" opacity="0.1"/>
    <path id="Path_1905" data-name="Path 1905" d="M524.47,480.07a18.569,18.569,0,0,0,7.547,2.366Z" transform="translate(-418.388 -381.154)" opacity="0.1"/>
    <path id="Path_1906" data-name="Path 1906" d="M491.5,501.3s2.738,3.441,3.987,3.529S491.5,501.3,491.5,501.3Z" transform="translate(-392.509 -397.818)" opacity="0.1"/>
    <path id="Path_1907" data-name="Path 1907" d="M497.274,564c-.123.06-1.553,3.1-3.011,3.2S497.274,564,497.274,564Z" transform="translate(-394.448 -447.034)" opacity="0.1"/>
    <path id="Path_1908" data-name="Path 1908" d="M568.33,594.671s2.714-.609,3.318,1.338C571.648,596,571.466,595.394,568.33,594.671Z" transform="translate(-452.816 -471.038)" opacity="0.1"/>
    <path id="Path_1909" data-name="Path 1909" d="M559.84,645.893s3.288-.671,3.987.243S559.84,645.893,559.84,645.893Z" transform="translate(-446.152 -511.129)" opacity="0.1"/>
    <path id="Path_1910" data-name="Path 1910" d="M504.8,654c0,.03-3.346.671-3.226,1.1s3.57.366,3.693-.305A.645.645,0,0,0,504.8,654Z" transform="translate(-400.417 -517.678)" opacity="0.1"/>
    <path id="Path_1911" data-name="Path 1911" d="M554.75,666.714s5.5-.671,5.161.486S554.75,666.714,554.75,666.714Z" transform="translate(-442.156 -527.506)" opacity="0.1"/>
    <path id="Path_1912" data-name="Path 1912" d="M420.89,352.44c.03.09,3.622.579,4.108,1.736a30.889,30.889,0,0,0-4.086-1.645" transform="translate(-337.084 -280.972)" opacity="0.1"/>
    <path id="Path_1913" data-name="Path 1913" d="M434.23,396.16s-2.983.944-2.77,2.366S431.157,397.868,434.23,396.16Z" transform="translate(-345.373 -315.29)" opacity="0.1"/>
    <path id="Path_1914" data-name="Path 1914" d="M437.92,425.275s1.086-1.49,2.12-1.217S437.92,425.275,437.92,425.275Z" transform="translate(-350.452 -337.162)" opacity="0.1"/>
    <path id="Path_1915" data-name="Path 1915" d="M475.492,163.022a1.692,1.692,0,0,1-.348.26,4.015,4.015,0,0,0-1.505,2.163,4.6,4.6,0,0,1-1.568,2.14c-.991.6-2.3.378-3.327.9a2.581,2.581,0,0,0-1.376,2.544,7.347,7.347,0,0,0,.292,1.166,8.309,8.309,0,0,1,.314,2.531.431.431,0,0,1,0,.075,7.028,7.028,0,1,1,7.527-11.779Z" transform="translate(-370.991 -131.084)" opacity="0.1"/>
    <path id="Path_1916" data-name="Path 1916" d="M462.5,146.02a6.487,6.487,0,0,0-4.179-3.151,7.018,7.018,0,0,0-4.058-.086,14.89,14.89,0,0,0-2.123,1,12.006,12.006,0,0,0-3.716,2.26,1.132,1.132,0,0,0-.372.908,2.534,2.534,0,0,0,.368.658,2,2,0,0,1,.019,1.654,15.152,15.152,0,0,0-.606,1.589,1.672,1.672,0,0,0,.327,1.594,5.96,5.96,0,0,0,.615.43,3.237,3.237,0,0,1,.583.662l1.161,1.587a16.1,16.1,0,0,1,1.454,2.234,10.651,10.651,0,0,0,.9,1.705,1.946,1.946,0,0,0,1.63.871.316.316,0,0,0,.258-.123.34.34,0,0,0,.032-.161,8.254,8.254,0,0,0-.308-2.523,7.286,7.286,0,0,1-.292-1.166,2.592,2.592,0,0,1,1.376-2.544c1.032-.52,2.338-.3,3.327-.9a4.57,4.57,0,0,0,1.568-2.151,4.049,4.049,0,0,1,1.505-2.163A1.513,1.513,0,0,0,462.5,146.02Z" transform="translate(-358.18 -116.199)" fill="#585268"/>
    <path id="Path_1917" data-name="Path 1917" d="M501.63,693.06s1.075,1.37.8,2.151S501.63,693.06,501.63,693.06Z" transform="translate(-400.46 -548.338)" opacity="0.1"/>
    <path id="Path_1918" data-name="Path 1918" d="M569.28,702.145s.239-1.837,1.2-1.854a3.2,3.2,0,0,1,1.736.183c.731.282,1.417.718,1.2.783s-1.258-1.049-2.325-.48A7.684,7.684,0,0,0,569.28,702.145Z" transform="translate(-453.562 -553.995)" opacity="0.1"/>
    <path id="Path_1919" data-name="Path 1919" d="M476.474,239.888l3.011-2.11s-4.4-2.6-4.929-2.237-.886,3.656-.886,3.656Z" transform="translate(-378.514 -189.186)" opacity="0.1"/>
    <path id="Path_1920" data-name="Path 1920" d="M476.414,239.109l3.011-2.151s-4.4-2.6-4.929-2.237-.886,3.837-.886,3.837Z" transform="translate(-378.466 -188.543)" fill="#e1e7ef"/>
    <path id="Path_1921" data-name="Path 1921" d="M476.414,239.109l3.011-2.151s-4.4-2.6-4.929-2.237-.886,3.837-.886,3.837Z" transform="translate(-378.466 -188.543)" fill="#269a3e"/>
    <path id="Path_1922" data-name="Path 1922" d="M437.4,234.454l-.09-.045a.781.781,0,0,0-.845.088l-9.033,7.327a12.129,12.129,0,0,0-1.69,7.4l5.327,7.546s.609-2.555,1.338-2.069c0,0,1.034,13.086,0,14.972s-1.49,8.947-1.49,8.947l3.5.4s.366-4.779,1.187-6.482,1.269-7.559,1.269-7.559.74-8.508.617-12.159-1.187-11.5-1.187-11.5A34.867,34.867,0,0,1,437.4,234.454Z" transform="translate(-340.875 -188.258)" fill="#67647e"/>
    <path id="Path_1923" data-name="Path 1923" d="M508.193,232.9l-3.753-1.389s4.779-5.235,5.377-2.331Z" transform="translate(-402.666 -183.531)" opacity="0.1"/>
    <path id="Path_1924" data-name="Path 1924" d="M508.193,232.049l-3.753-1.389s4.779-5.235,5.377-2.331Z" transform="translate(-402.666 -182.864)" fill="#e1e7ef"/>
    <path id="Path_1925" data-name="Path 1925" d="M508.193,232.049l-3.753-1.389s4.779-5.235,5.377-2.331Z" transform="translate(-402.666 -182.864)" fill="#269a3e"/>
    <path id="Path_1926" data-name="Path 1926" d="M521.32,228.11a.215.215,0,0,1,.155.034Z" transform="translate(-415.916 -183.379)" opacity="0.1"/>
    <path id="Path_1927" data-name="Path 1927" d="M523,226.416l9.957,2.151s2.74.609,4.719,7.486-2.71,15.3-2.71,15.3l-1.034-.88.518,20.085s-4.6,1.733-6.056.215-1.308-8.65-1.308-8.65-1.4-13.145-2.284-15.306-.43-17.74-.43-17.74S523.559,226.3,523,226.416Z" transform="translate(-417.234 -182.048)" fill="#67647e"/>
    <path id="Path_1928" data-name="Path 1928" d="M564.883,285.611a56.976,56.976,0,0,0,.305,10.833,59.047,59.047,0,0,0,1.721,8.338l-.9-18.532S565.309,285.215,564.883,285.611Z" transform="translate(-450.008 -228.445)" opacity="0.1"/>
    <path id="Path_1929" data-name="Path 1929" d="M559.7,261.6c.243.153,1.31,2.677.822,3.712S559.7,261.6,559.7,261.6Z" transform="translate(-446.042 -209.668)" opacity="0.1"/>
    <path id="Path_1930" data-name="Path 1930" d="M482.083,150.423a5.5,5.5,0,0,0-2.189-2.293,5.208,5.208,0,0,1,1.641,1.936,1.529,1.529,0,0,1-.533,2.191,4.027,4.027,0,0,0-1.505,2.164,4.676,4.676,0,0,1-1.57,2.151c-.989.6-2.295.376-3.327.9a2.6,2.6,0,0,0-1.376,2.546,7.313,7.313,0,0,0,.295,1.163,8.318,8.318,0,0,1,.314,2.531.339.339,0,0,1-.034.161.308.308,0,0,1-.256.123,1.482,1.482,0,0,1-.751-.14,1.746,1.746,0,0,0,1.29.505.254.254,0,0,0,.288-.284,8.248,8.248,0,0,0-.312-2.531,7.06,7.06,0,0,1-.295-1.166,2.591,2.591,0,0,1,1.376-2.544c1.032-.52,2.338-.3,3.327-.9a4.571,4.571,0,0,0,1.568-2.151,4.049,4.049,0,0,1,1.505-2.164A1.531,1.531,0,0,0,482.083,150.423Z" transform="translate(-377.823 -120.601)" opacity="0.1"/>
    <path id="Path_1931" data-name="Path 1931" d="M647.862,195.475c-2.964-.058-5.579-2.151-7.061-4.708a4.733,4.733,0,0,1-.714-2.015,2.332,2.332,0,0,1,.082-.482,4.991,4.991,0,0,0,.215-.738,1.284,1.284,0,0,0,0-.3s0,0,0-.017a1.778,1.778,0,0,0-.645-1.447c-.4-.372-.893-.645-1.305-1.015a6.114,6.114,0,0,1-1.684-4.62v-.09c.015-.731.073-1.465.067-2.2a9.232,9.232,0,0,0-.054-1.243,4.108,4.108,0,0,0-1.329-2.748c-2.12-1.72-5.686.071-7.882-1.555-.533-.4-.966-.985-1.613-1.14a2.717,2.717,0,0,0-1.473.2c-1.617.533-3.422,1.234-4.054,2.8-.361.9-.26,1.92-.591,2.828a14.124,14.124,0,0,1-.925,1.708,2.674,2.674,0,0,0-.344,1.426,1.609,1.609,0,0,0,.105.759,1.934,1.934,0,0,0,.527.755,2.509,2.509,0,0,1-.314.5c-.413.505-1.047.86-1.477,1.363a3.222,3.222,0,0,0-.374,3.26c.391,1.084,1.1,2.071,1.587,3.127a1.678,1.678,0,0,1,.161,1.426,4.089,4.089,0,0,1-.714.83,2.609,2.609,0,0,0-.645,1.441c-4.841,1.105-4.845,5-4.845,5h0l-2.615,6.577s-.419,1.108-.912,2.57l-3.095-.555,2.151,3.6a11.365,11.365,0,0,0-.6,3.51s-.961,4.516.748,5.306l3.772,1.7a2.239,2.239,0,0,0,.523.234l.153.069a.4.4,0,0,0,.353,0h.052a.507.507,0,0,0,.215-.032.43.43,0,0,0,.189-.2.067.067,0,0,1,0-.021l1.129-.327.957,1.133c.43.3.86.566,1.267.8l-1.482,14.714s-.239,19.571-.961,24.031a12.5,12.5,0,0,0-.168,3.544l-.028.047c.179,1.258.645,1.505.645,1.505v-.017a.143.143,0,0,0,.028.017,12.675,12.675,0,0,1,.774-1.66v.323c-.015,1.66-.067,3.985-.239,5.5-.293,2.581.748,11.086.748,11.086l.359,7.742a7.158,7.158,0,0,1-.882,3.772,17.805,17.805,0,0,0-2.039,4.688.977.977,0,0,0,0,.157h0L611.76,300.6s-.721,1.114.907,1.563a8.715,8.715,0,0,0,3.6-.286,2.4,2.4,0,0,0,1.865-2.34,8.282,8.282,0,0,1,1.523-2.923l.3,1.783,2.03.5.26-4.886a2.149,2.149,0,0,0,.14-.86h0c.4-3.475-.942-3.164-.942-3.164a.187.187,0,0,1,.064.12l-.064-.118h0a8.79,8.79,0,0,1-.43-4.3s1.075-7.742,1.443-9.787a70.992,70.992,0,0,0,.067-8.818,3.169,3.169,0,0,0-.011-.32c3.148-.041,7.007-.146,9.714-.409v.318l-.5,18.291a10.039,10.039,0,0,1-.7,3.4.186.186,0,0,1-.024.062,14.839,14.839,0,0,0-.991,4.794l-.232,5.807v.161h0c-.4.155-1.043.6-1.06,1.908-.028,1.91,3.338,1.273,3.338,1.273,3.363,0,3.391-3.5,3.391-3.5s.105-3.211.267-5.359-.508-1.675-.508-1.675l-.052,6.112v-5.31l.052-.776v-.022h0v-.166l.424-6.3s3.1-10.5,3.579-12.519c.342-1.432.2-5.746.088-8.131a1.889,1.889,0,0,0-.017-.316c.961-.086,1.811-.095,2.151-.095h.157s-.159-16.869-.561-23.227-1.041-12.175-2.643-13.925c-.968-1.058-2.316-4.325-3.226-6.744a33.739,33.739,0,0,0,5.929,1.936c5.073,1.062,4.379-3.342,4.379-3.342l-.514-8.329h.034a42.465,42.465,0,0,0-.559-6.512,19.163,19.163,0,0,0-1.307-4.731c.55-.215,1.095-.445,1.628-.682,1.379-.609,2.931-1.471,3.129-2.957h-.067A1.922,1.922,0,0,0,647.862,195.475Zm-31.448,12.043h0c.011.86-.022,2.353-.073,4l-1.611-2.151,1.615-2.619ZM638,211.886Zm.671,3.254-2.684-.86a12.036,12.036,0,0,1,1.658-2.052l.232-.215-.084.017.129-.118.077-.017-.123.118.146-.03a4.577,4.577,0,0,0,.914,1.839c.964,1.052-.264,1.318-.264,1.318Z" transform="translate(-482.337 -138.646)" fill="url(#linear-gradient-2)"/>
    <path id="Path_1932" data-name="Path 1932" d="M641.158,715.66l-.314,5.953-2-.5-.422-2.475Z" transform="translate(-501.131 -561.746)" fill="#a27772"/>
    <path id="Path_1933" data-name="Path 1933" d="M641.158,715.66l-.314,5.953-2-.5-.422-2.475Z" transform="translate(-501.131 -561.746)" opacity="0.1"/>
    <path id="Path_1934" data-name="Path 1934" d="M716.48,628.53l3.054.632,2.265-2v-5.637l.052-.77v-.024h0v-.163l.422-6.265s3.056-10.428,3.531-12.43c.336-1.419.2-5.7.084-8.071-.045-.97-.084-1.62-.084-1.62l-6.742-1.632-.142,5.183-.492,18.16a10.064,10.064,0,0,1-.69,3.379l-.024.062a14.778,14.778,0,0,0-.979,4.757l-.228,5.774v.159Z" transform="translate(-569.104 -467.874)" fill="#cc818c"/>
    <path id="Path_1935" data-name="Path 1935" d="M741.45,730.134v.159h0v-.164Z" transform="translate(-588.705 -577.436)" opacity="0.1"/>
    <path id="Path_1936" data-name="Path 1936" d="M716.48,760.407l3.054.632,2.265-2v-.479a.645.645,0,0,1-.325.516l-.032.019a6.087,6.087,0,0,1-3.428.677l-1.191-.1a1.118,1.118,0,0,0-.316.077v.159Z" transform="translate(-569.104 -599.752)" opacity="0.1"/>
    <path id="Path_1937" data-name="Path 1937" d="M717.689,737.372l.032-.017a.645.645,0,0,0,.329-.559l.049-6.067s.658-.471.5,1.662-.262,5.321-.262,5.321-.026,3.475-3.344,3.475c0,0-3.318.632-3.293-1.265s1.37-1.974,1.37-1.974l1.191.1A6.073,6.073,0,0,0,717.689,737.372Z" transform="translate(-565.352 -577.871)" fill="#b07473"/>
    <path id="Path_1938" data-name="Path 1938" d="M642.52,634.492c.077,1.37,4.108.579,4.108.579l2.712-5.265s2.265-1.74,1.131-3.267a2.433,2.433,0,0,1-.166-.26l-.011-.013h0c-.024-.039-.045-.08-.067-.123h0a8.667,8.667,0,0,1-.413-4.258s1.052-7.69,1.422-9.719a71.325,71.325,0,0,0,.067-8.759c-.034-1.093-.067-1.826-.067-1.826l-6.691-1.792v2c-.015,1.65-.067,3.957-.237,5.458-.288,2.553.738,11.007.738,11.007l.355,7.693a7.125,7.125,0,0,1-.86,3.744,18,18,0,0,0-2.011,4.656.946.946,0,0,0-.011.148Z" transform="translate(-511.05 -475.127)" fill="#cc818c"/>
    <path id="Path_1939" data-name="Path 1939" d="M642.513,731.173c.077,1.37,4.108.579,4.108.579l2.712-5.265s2.265-1.74,1.131-3.267a2.414,2.414,0,0,1-.166-.26,13.078,13.078,0,0,1-.912,2.8s-2.239,4.48-2.951,5.506-3.8-.191-3.92-.234A.936.936,0,0,0,642.513,731.173Z" transform="translate(-511.044 -571.808)" opacity="0.1"/>
    <path id="Path_1940" data-name="Path 1940" d="M642.927,722.274s1.325-.307.929,3.142h0a2.221,2.221,0,0,1-1.047,1.972,7.531,7.531,0,0,0-3.151,4.37h0a2.383,2.383,0,0,1-1.839,2.323,8.621,8.621,0,0,1-3.549.284c-1.607-.447-.895-1.553-.895-1.553l1.843-2.187s3.213,1.265,3.923.237,2.951-5.5,2.951-5.5S643.321,722.565,642.927,722.274Z" transform="translate(-503.75 -571.264)" fill="#b07473"/>
    <path id="Path_1941" data-name="Path 1941" d="M727.962,593.52l-.142,5.183c1.8-.174,3.082-.417,3.3-.759.475-.735,2.2-1.045,3.667-1.172-.045-.97-.084-1.619-.084-1.619Z" transform="translate(-578.006 -470.205)" opacity="0.1"/>
    <path id="Path_1942" data-name="Path 1942" d="M651.94,604.716a2.459,2.459,0,0,1,.738-.89c.71-.394.632,2.529.632,2.529s2.366.021,5.387-.017c-.034-1.093-.067-1.828-.067-1.828l-6.69-1.789S651.953,603.55,651.94,604.716Z" transform="translate(-518.445 -477.427)" opacity="0.1"/>
    <path id="Path_1943" data-name="Path 1943" d="M645.846,437s.791-2.151,1.505-2.533.632,2.527.632,2.527,17.381.159,18.25-1.185,5.925-1.265,5.925-1.265-.157-16.749-.553-23.067S670.58,399.387,669,397.65c-1.022-1.125-2.475-4.764-3.374-7.189-.488-1.325-.813-2.29-.813-2.29l-16.59.946-.135,1.344-1.761,17.618s-.237,19.435-.948,23.859S645.846,437,645.846,437Z" transform="translate(-513.114 -309.018)" fill="#444053"/>
    <g id="Group_25" data-name="Group 25" transform="translate(132.054 79.152)" opacity="0.1">
      <path id="Path_1944" data-name="Path 1944" d="M678.777,435.808c.86-1.342,5.925-1.265,5.925-1.265s-.157-16.749-.553-23.067-1.026-12.089-2.606-13.826c-1.026-1.129-2.475-4.764-3.374-7.189-.411-1.114-.705-1.972-.787-2.217l1.29-.073s.325.966.815,2.29c.9,2.426,2.351,6.065,3.372,7.189,1.581,1.738,2.213,7.506,2.606,13.826s.555,23.067.555,23.067-5.056-.077-5.927,1.265c-.742,1.146-13.532,1.2-17.243,1.189C667.613,436.987,678.106,436.845,678.777,435.808Z" transform="translate(-659.063 -388.17)"/>
      <path id="Path_1945" data-name="Path 1945" d="M646.072,603.3c.321-.179.48.316.559.916a12.4,12.4,0,0,0-.746,1.617s-.458-.247-.645-1.505A2.928,2.928,0,0,1,646.072,603.3Z" transform="translate(-645.24 -557.009)"/>
    </g>
    <path id="Path_1946" data-name="Path 1946" d="M660.154,191.066c-1.148,1.566.013,3.792-1.219,5.314-.406.5-1.032.86-1.456,1.355a3.218,3.218,0,0,0-.37,3.237c.385,1.075,1.075,2.056,1.566,3.105a1.661,1.661,0,0,1,.159,1.415,4.01,4.01,0,0,1-.705.824,2.971,2.971,0,0,0-.387,3.153,10.2,10.2,0,0,0,2.041,2.817,1.393,1.393,0,0,0,2.024.462,7.957,7.957,0,0,0,3.622-10.385c-.667-1.6-1.778-3.129-1.789-4.817,0-1.34.688-2.619.811-3.953.148-1.622-.811-4.2-2.768-4.9C661.81,189.731,660.737,190.262,660.154,191.066Z" transform="translate(-522.295 -152.438)" fill="#585268"/>
    <path id="Path_1947" data-name="Path 1947" d="M660.154,191.066c-1.148,1.566.013,3.792-1.219,5.314-.406.5-1.032.86-1.456,1.355a3.218,3.218,0,0,0-.37,3.237c.385,1.075,1.075,2.056,1.566,3.105a1.661,1.661,0,0,1,.159,1.415,4.01,4.01,0,0,1-.705.824,2.971,2.971,0,0,0-.387,3.153,10.2,10.2,0,0,0,2.041,2.817,1.393,1.393,0,0,0,2.024.462,7.957,7.957,0,0,0,3.622-10.385c-.667-1.6-1.778-3.129-1.789-4.817,0-1.34.688-2.619.811-3.953.148-1.622-.811-4.2-2.768-4.9C661.81,189.731,660.737,190.262,660.154,191.066Z" transform="translate(-522.295 -152.438)" opacity="0.1"/>
    <path id="Path_1948" data-name="Path 1948" d="M685.453,464.55a15.272,15.272,0,0,0-6.475,2.228,44.348,44.348,0,0,1-6.127,3.179" transform="translate(-534.858 -368.972)" opacity="0.1"/>
    <path id="Path_1949" data-name="Path 1949" d="M685.422,489.74a9.477,9.477,0,0,0-5.968,2.9c-.559.591-1.041,1.254-1.624,1.822a7.214,7.214,0,0,1-3.2,1.813" transform="translate(-536.255 -388.744)" opacity="0.1"/>
    <path id="Path_1950" data-name="Path 1950" d="M679.5,508.91a10.434,10.434,0,0,0-4.8,2.895c-.353.381-.673.787-1.026,1.168-1.9,2.043-4.592,3.127-7.187,4.153" transform="translate(-529.865 -403.792)" opacity="0.1"/>
    <path id="Path_1951" data-name="Path 1951" d="M692.785,242.654a47.174,47.174,0,0,0,.473,5.488,7.182,7.182,0,0,0,.949,2.966c1.264,1.505-6.162,3.516-6.162,3.516l-4.385-3.4s3.476-3.2,1.856-6.321S692.785,242.654,692.785,242.654Z" transform="translate(-543.343 -194.71)" fill="#cc818c"/>
    <path id="Path_1952" data-name="Path 1952" d="M658.79,390.46h17.538c-.488-1.325-.813-2.29-.813-2.29l-16.59.946Z" transform="translate(-523.821 -309.018)" opacity="0.1"/>
    <path id="Path_1953" data-name="Path 1953" d="M641.044,299.146h18.751a6.507,6.507,0,0,1,.751-4.972,10.99,10.99,0,0,1,1.964-2.546l.129-.118,6.546-1.449.353-.077s.054-11.9-4.162-13.538a24.642,24.642,0,0,1-6.742-3.843l-5.792,1.789-4.267-2.151c-1.37,1.473-5,.895-5,.895-5.951.684-5.951,5.161-5.951,5.161s3.475,8.11,3.74,8.11S641.044,299.146,641.044,299.146Z" transform="translate(-507.204 -218.02)" fill="#269a3e"/>
    <path id="Path_1954" data-name="Path 1954" d="M664.935,353.659s-3.824-.847-5.125-2.329" transform="translate(-524.622 -280.101)" opacity="0.1"/>
    <path id="Path_1955" data-name="Path 1955" d="M757.1,341.51l-4.435,3.635a7.558,7.558,0,0,0,.146.86l.129-.118,6.546-1.45Z" transform="translate(-597.511 -272.393)" opacity="0.1"/>
    <path id="Path_1956" data-name="Path 1956" d="M717.46,372.631s.97.546,2.456,1.264h2.548a6.507,6.507,0,0,1,.75-4.972l-4.493-1.454C720.251,368.892,717.46,372.631,717.46,372.631Z" transform="translate(-569.874 -292.77)" opacity="0.1"/>
    <path id="Path_1957" data-name="Path 1957" d="M621.02,293.76l-2.632,1.422-2.581,6.531s-2.686,7.162-2.424,9.058c0,0-.946,4.478.738,5.267l4.387,1.987a.409.409,0,0,0,.527-.564c-.626-1.185-1.314-3.039-.215-4.058l-1.265-2.632,4.57-7.48,1.527-2.581Z" transform="translate(-487.972 -234.912)" fill="#269a3e"/>
    <path id="Path_1958" data-name="Path 1958" d="M676.965,348.587c.228.929,1,2.366,3.546,2.9l2.8,2.29,2.974,1.348,1.213.548.514-3.714-1.168-.645-1.361-.744s-3.071-5.564-7.934-3.226A1.075,1.075,0,0,0,676.965,348.587Z" transform="translate(-538.061 -276.524)" opacity="0.1"/>
    <path id="Path_1959" data-name="Path 1959" d="M677.721,347.163c.228.931,1,2.366,3.544,2.9l2.8,2.29,2.977,1.348,1.211.548.514-3.714-1.168-.645-1.351-.738s-3.073-5.564-7.936-3.215A1.075,1.075,0,0,0,677.721,347.163Z" transform="translate(-538.658 -275.416)" fill="#cc818c"/>
    <circle id="Ellipse_534" data-name="Ellipse 534" cx="6.794" cy="6.794" r="6.794" transform="translate(137.749 39.174)" opacity="0.1"/>
    <circle id="Ellipse_535" data-name="Ellipse 535" cx="6.794" cy="6.794" r="6.794" transform="translate(137.749 39.017)" fill="#cc818c"/>
    <path id="Path_1960" data-name="Path 1960" d="M715.423,275.307l-2.043-3.97s2.989-1.209,3.206-2.609,2.865,1.641,2.293,2.65A37.611,37.611,0,0,1,715.423,275.307Z" transform="translate(-566.671 -214.979)" opacity="0.1"/>
    <path id="Path_1961" data-name="Path 1961" d="M715.423,273.838l-2.043-3.97s2.989-1.209,3.206-2.609,2.865,1.643,2.293,2.649A37.84,37.84,0,0,1,715.423,273.838Z" transform="translate(-566.671 -213.826)" fill="#269a3e"/>
    <path id="Path_1962" data-name="Path 1962" d="M615.4,341.475l11.288,15.177s-4.161,2.265-9.893-1.789l-2.475-2.951L607.25,340Z" transform="translate(-483.366 -271.208)" fill="#f6f8fb"/>
    <path id="Path_1963" data-name="Path 1963" d="M633.834,370.959l1.028-.028s6.28-6.095,7.822-3.011-3.912,5.966-3.912,5.966l-1.658.895-2.161.645-1.383-1.856Z" transform="translate(-504.025 -292.439)" fill="#cc818c"/>
    <path id="Path_1964" data-name="Path 1964" d="M630.161,386.163a1.534,1.534,0,0,1,.026,1.062.43.43,0,0,1-.187.2.479.479,0,0,1-.215.03,2.161,2.161,0,0,1-1.417-.7,6.474,6.474,0,0,1-.918-1.329,2.452,2.452,0,0,1-.471-1.583,2.309,2.309,0,0,1,1.168-1.364c1.041-.688,1.075.114,1.3,1S629.922,385.269,630.161,386.163Z" transform="translate(-498.835 -304.351)" opacity="0.1"/>
    <path id="Path_1965" data-name="Path 1965" d="M629.428,386.163a1.547,1.547,0,0,1,.026,1.062.43.43,0,0,1-.187.2.483.483,0,0,1-.215.03,2.15,2.15,0,0,1-1.417-.7,6.4,6.4,0,0,1-.921-1.329,2.437,2.437,0,0,1-.469-1.583,2.3,2.3,0,0,1,1.166-1.364c1.043-.688,1.075.114,1.305,1S629.187,385.269,629.428,386.163Z" transform="translate(-498.259 -304.351)" fill="#269a3e"/>
    <path id="Path_1966" data-name="Path 1966" d="M623.85,314.7l.525-.888-.458,1.65Z" transform="translate(-489.694 -246.319)" opacity="0.1"/>
    <path id="Path_1967" data-name="Path 1967" d="M721.19,370.241l1.211.548.514-3.714-1.168-.645C722.553,367.355,721.848,369.064,721.19,370.241Z" transform="translate(-572.802 -291.953)" opacity="0.1"/>
    <path id="Path_1968" data-name="Path 1968" d="M723.46,361.078s-3.91.239-5.57-.828" transform="translate(-570.211 -287.103)" opacity="0.1"/>
    <g id="Group_26" data-name="Group 26" transform="translate(136.117 54.53)" opacity="0.1">
      <path id="Path_1969" data-name="Path 1969" d="M735.172,296.963a11.011,11.011,0,0,1,1.964-2.548,5.236,5.236,0,0,1,.579-.314l6.095-1.252.353-.077s.054-11.9-4.159-13.538a25.317,25.317,0,0,1-6.572-3.7l.462-.142a24.577,24.577,0,0,0,6.742,3.843c4.215,1.632,4.159,13.538,4.159,13.538h-.632l-6.237,1.194s-.269.26-.35.336a12.089,12.089,0,0,0-1.994,2.637,6.612,6.612,0,0,0-.523,5h-.645A6.574,6.574,0,0,1,735.172,296.963Z" transform="translate(-718.526 -275.022)"/>
      <path id="Path_1970" data-name="Path 1970" d="M664.13,277.851c.1-.015.2-.03.3-.041a10.913,10.913,0,0,0,1.29.105A11.736,11.736,0,0,1,664.13,277.851Z" transform="translate(-664.13 -276.922)"/>
      <path id="Path_1971" data-name="Path 1971" d="M691.618,275.837l-3.858-1.953a2.036,2.036,0,0,0,.215-.2L692,275.717Z" transform="translate(-682.678 -273.68)"/>
    </g>
    <path id="Path_1972" data-name="Path 1972" d="M730.192,340l2.581,3.161.527,8.585s.684,4.37-4.319,3.316a46.126,46.126,0,0,1-10.792-4.31s2.8-3.74,1.265-5.161l7.164,2.318s1.211-.265.262-1.316a5.925,5.925,0,0,1-1.116-2.951Z" transform="translate(-570.447 -271.208)" fill="#269a3e"/>
    <path id="Path_1973" data-name="Path 1973" d="M779.42,382.17l1.422,1.632A2.049,2.049,0,0,1,779.42,382.17Z" transform="translate(-618.509 -304.308)" opacity="0.1"/>
    <path id="Path_1974" data-name="Path 1974" d="M736.99,360.8l2.213,2.843-1.105.264Z" transform="translate(-578.502 -283.203)" opacity="0.1"/>
    <path id="Path_1975" data-name="Path 1975" d="M665.172,184.411a2.269,2.269,0,0,1,.237-1.852,14.63,14.63,0,0,0,.914-1.7c.325-.9.226-1.916.581-2.8.626-1.559,2.4-2.256,4-2.8a2.688,2.688,0,0,1,1.454-.2c.645.153,1.065.738,1.591,1.131,2.164,1.613,5.682-.163,7.774,1.544a4.069,4.069,0,0,1,1.31,2.727,24.081,24.081,0,0,1-.013,3.1c-.034,1.811.305,3.792,1.66,4.992.409.361.89.632,1.29,1.006a1.762,1.762,0,0,1,.645,1.439,4.989,4.989,0,0,1-.215.731,3.743,3.743,0,0,0,.624,2.8c1.462,2.531,4.041,4.617,6.964,4.675-.2,1.475-1.72,2.331-3.086,2.936a12.12,12.12,0,0,1-5.447,1.432c-1.895-.1-3.871-1.31-4.2-3.176-.114-.645-.1-1.422-.645-1.757-.336-.2-.77-.153-1.131-.305a1.993,1.993,0,0,1-.953-1.342,12.076,12.076,0,0,1-.561-3.441c-.024-1.385.159-2.9-.626-4.037-.727-1.056-2.017-1.591-2.856-2.561-.774-.9-1.615-1.983-2.884-2.151C669.839,184.566,666.208,186.951,665.172,184.411Z" transform="translate(-528.743 -141.719)" opacity="0.1"/>
    <path id="Path_1976" data-name="Path 1976" d="M665.172,182.941a2.269,2.269,0,0,1,.237-1.852,14.63,14.63,0,0,0,.914-1.7c.325-.9.226-1.916.581-2.8.626-1.561,2.4-2.258,4-2.8a2.687,2.687,0,0,1,1.454-.2c.645.153,1.065.738,1.591,1.131,2.164,1.613,5.682-.163,7.774,1.544a4.07,4.07,0,0,1,1.31,2.729,24.046,24.046,0,0,1-.013,3.1c-.034,1.811.305,3.791,1.66,4.992.409.361.89.632,1.29,1.006a1.762,1.762,0,0,1,.645,1.439,4.989,4.989,0,0,1-.215.731,3.743,3.743,0,0,0,.624,2.8c1.467,2.523,4.035,4.615,6.957,4.673-.2,1.475-1.721,2.331-3.086,2.938a12.146,12.146,0,0,1-5.447,1.43c-1.895-.1-3.871-1.31-4.2-3.176-.114-.645-.1-1.422-.645-1.757-.335-.2-.77-.153-1.131-.305a1.993,1.993,0,0,1-.953-1.342,12.069,12.069,0,0,1-.561-3.441c-.024-1.385.159-2.9-.626-4.037-.727-1.056-2.017-1.591-2.856-2.561-.774-.9-1.615-1.983-2.884-2.151C669.839,183.1,666.208,185.485,665.172,182.941Z" transform="translate(-528.743 -140.565)" fill="#585268"/>
    <path id="Path_1977" data-name="Path 1977" d="M683.108,275.534,687,272.372s-2.667-1.445-2.985-2.678-2.452.585-2.234,1.69S683.108,275.534,683.108,275.534Z" transform="translate(-541.858 -215.699)" opacity="0.1"/>
    <path id="Path_1978" data-name="Path 1978" d="M683.865,273.332l3.895-3.159s-2.667-1.445-2.972-2.677-2.452.585-2.235,1.69S683.865,273.332,683.865,273.332Z" transform="translate(-542.462 -213.972)" fill="#269a3e"/>
    <circle id="Ellipse_536" data-name="Ellipse 536" cx="0.31" cy="0.31" r="0.31" transform="translate(145.141 58.536)" opacity="0.1"/>
    <circle id="Ellipse_537" data-name="Ellipse 537" cx="0.31" cy="0.31" r="0.31" transform="translate(145.141 60.257)" opacity="0.1"/>
    <circle id="Ellipse_538" data-name="Ellipse 538" cx="0.31" cy="0.31" r="0.31" transform="translate(145.141 61.975)" opacity="0.1"/>
    <g id="Group_27" data-name="Group 27" transform="translate(136.366 35.34)" opacity="0.1">
      <path id="Path_1979" data-name="Path 1979" d="M671.414,187.1c.308-.845.241-1.794.529-2.645a2.887,2.887,0,0,0-.329.606c-.357.888-.256,1.905-.583,2.8l-.021.052A4.912,4.912,0,0,0,671.414,187.1Z" transform="translate(-669.779 -184.45)"/>
      <path id="Path_1980" data-name="Path 1980" d="M691.493,225.661a12.146,12.146,0,0,1-5.448,1.43c-1.895-.1-3.871-1.31-4.2-3.174-.114-.645-.1-1.424-.645-1.759-.336-.2-.77-.153-1.131-.305a1.993,1.993,0,0,1-.953-1.342,12.065,12.065,0,0,1-.561-3.441c-.024-1.383.161-2.895-.624-4.037-.729-1.056-2.019-1.589-2.858-2.561-.774-.9-1.615-1.983-2.884-2.151-1.74-.237-5.377,2.151-6.4-.391a2,2,0,0,1,.067-1.469c-.075.127-.148.254-.215.383a2.278,2.278,0,0,0-.234,1.854c1.034,2.538,4.665.153,6.4.391,1.269.172,2.11,1.258,2.884,2.151.839.972,2.129,1.505,2.856,2.564.787,1.14.6,2.652.626,4.035a12.061,12.061,0,0,0,.561,3.441,2,2,0,0,0,.953,1.342c.361.153.8.1,1.131.305.555.336.54,1.12.645,1.759.336,1.865,2.31,3.078,4.2,3.174a12.161,12.161,0,0,0,5.448-1.43c1.247-.555,2.637-1.323,3.011-2.581A6.516,6.516,0,0,1,691.493,225.661Z" transform="translate(-665.288 -201.726)"/>
    </g>
    <path id="Path_1981" data-name="Path 1981" d="M813.431,264a50.6,50.6,0,0,0-6.282-3.265l-.095-.067a3.786,3.786,0,0,1-1.146-1.45,3.02,3.02,0,0,1,0-.312.131.131,0,0,0,0,.03,6.862,6.862,0,0,1,1.994-3.751l2.393-2.815a2.772,2.772,0,0,0,.617-.976,2.255,2.255,0,0,0,.065-.6v-.245c-.013-.7-.032-1.4-.058-2.1-.021-.611-.178-1.381-.789-1.505-.318-.065-.74.049-.908-.215a.523.523,0,0,1-.041-.363.118.118,0,0,0,0,.03v-.034a8.092,8.092,0,0,0,.226-1.439,1.961,1.961,0,0,0-.1-.729c-.353-1.013-1.572-1.43-2.65-1.622s-2.286-.355-2.961-1.2a8.767,8.767,0,0,0-.589-.811,2.325,2.325,0,0,0-1.1-.544,6.237,6.237,0,0,0-4.007.348,3.6,3.6,0,0,1-1.615.512c-.572-.034-1.1-.447-1.686-.546a2.406,2.406,0,0,0-2.318,1.357,3.319,3.319,0,0,0-.43,1.6v.095h0a2.34,2.34,0,0,0,.615,1.634c.409.43,1.015.714,1.185,1.271.069.226.052.471.114.7a.612.612,0,0,0,.026.084l-.03.041a7.1,7.1,0,0,0-1.505,4.374,7.26,7.26,0,0,0,5.1,6.882v.215a3.094,3.094,0,0,1-.989,2.409l-6.45,2.576s-3.888-.462-5.29,5.22a9.687,9.687,0,0,0-.241,2.882,8.354,8.354,0,0,1-1.075,4.316c-1.594,3.123-1.23,10.291,2.03,11,3.078.671,4.282.391,4.409.359v.125c-.052,1.346-.54,12.947-2.314,14.349-.49.389-.4.645,0,.828,0,0,0,.075-.011.215-.054.86-.327,4.086-1.505,5.918-1.379,2.129-1.234,14.409-1.234,14.409l-.94,7.239s.578,4.471,0,5.252c-.518.695-1.207,17.235-1.351,20.822h-.06a1.746,1.746,0,0,0-1.394.86,24.3,24.3,0,0,1-3.428,3.523c-.579.822-2.718,1.609-3.85,1.979a2.391,2.391,0,0,0-.43.189,2.294,2.294,0,0,0-.972,1.024,1.1,1.1,0,0,0-.1.86c.288.708,6.3,1.206,7.826.495,1.2-.557,5.936-1.29,7.9-1.579a1.622,1.622,0,0,0,1.406-1.406.927.927,0,0,0-.181-.7h0a6.234,6.234,0,0,1-.645-2.581,1.743,1.743,0,0,0,.443-.262,18.894,18.894,0,0,1,1.075-7.594c1.45-3.832,1.884-10.929,1.523-15.542,0,0,4.419-19.02,7.9-20.794h0c.054.069,1.742,2.234,1.957,8.942a27.1,27.1,0,0,0,2.68,11.284s-1.088,11.568,0,15.9l-1.422,6.828c-.105-.088-.172-.157-.172-.157s.043.189.1.492l-.03.146.062.013a13.438,13.438,0,0,1,.3,3.226c-.056.5-.2,1.179-.29,1.847-.151,1.052-.191,2.071.361,2.295.908.366,6.237.86,7.14-.31a1.675,1.675,0,0,0,.262-1.753,1.776,1.776,0,0,0-.262-.447s-1.415-2.312-1.015-3.942a1.2,1.2,0,0,0-.17-.935,48.079,48.079,0,0,1,1.22-7.648c.907-3.415,2.819-10.9,1.413-15.826h0q-.079-.29-.181-.568a21.254,21.254,0,0,1-.8-8.3,16.926,16.926,0,0,1,0-7.239c.871-3.974,1.48-7.878,1.48-7.878a49.816,49.816,0,0,0,.06-8.471,2.11,2.11,0,0,0-.028-.215l.228-.052s-1.232-5.465-1.667-8.942c-.1-.822-.237-1.86-.383-2.97a7.588,7.588,0,0,0,1.181-.295c3.912-1.348,5.144-13.549,5.144-13.549v-3.871S818,266.624,813.431,264Zm-29.154,94.248c-.12-.06-.191-.1-.191-.1h0Z" transform="translate(-612.851 -192.587)" fill="url(#linear-gradient-3)"/>
    <path id="Path_1982" data-name="Path 1982" d="M849.6,553.122c1.7,4.88-.284,12.8-1.2,16.345a49.415,49.415,0,0,0-1.2,7.781,16.387,16.387,0,0,1-6.224-.142l1.486-7.284c-1.062-4.314,0-15.844,0-15.844a27.487,27.487,0,0,1-2.617-11.246c-.215-6.682-1.856-8.843-1.908-8.91h0c-3.394,1.768-7.708,20.723-7.708,20.723.353,4.6-.073,11.669-1.486,15.484a19.139,19.139,0,0,0-1.06,7.566,2.3,2.3,0,0,1-1.936.37A13.21,13.21,0,0,1,821.3,575.9s.776-20.646,1.344-21.429,0-5.234,0-5.234l.918-7.213s-.142-12.237,1.2-14.357c1.161-1.832,1.428-5.054,1.48-5.9v-.215l2.047-2.452s19.8-1.486,21.291,0a4.244,4.244,0,0,1,.723,2.237,50.673,50.673,0,0,1-.06,8.441s-.594,3.891-1.443,7.85a17.232,17.232,0,0,0,0,7.215A21.6,21.6,0,0,0,849.6,553.122Z" transform="translate(-651.382 -411.271)" fill="#65617d"/>
    <path id="Path_1983" data-name="Path 1983" d="M919.877,791.989c-.884,1.168-6.082.673-6.968.31-.54-.215-.5-1.241-.353-2.288.093-.664.228-1.344.284-1.839a16.925,16.925,0,0,0-.43-3.856s1.166,1.239,1.447,0a1.349,1.349,0,0,1,1.011-.959,2.64,2.64,0,0,1,1.837.114c.918.4,2.45,1.25,2.176,2.4-.389,1.624.989,3.929.989,3.929a1.79,1.79,0,0,1,.258.443,1.7,1.7,0,0,1-.252,1.748Z" transform="translate(-722.898 -619.127)" fill="#a27772"/>
    <path id="Path_1984" data-name="Path 1984" d="M920.064,816.688c-.884,1.168-6.082.673-6.968.31-.54-.215-.5-1.241-.353-2.288a6,6,0,0,0,3.09.333,8.713,8.713,0,0,1,1.112-.035,25.836,25.836,0,0,0,3.376-.069A1.7,1.7,0,0,1,920.064,816.688Z" transform="translate(-723.085 -643.826)" opacity="0.1"/>
    <path id="Path_1985" data-name="Path 1985" d="M846.422,605.669c.353,4.6-.073,11.669-1.486,15.484a19.141,19.141,0,0,0-1.06,7.566,2.3,2.3,0,0,1-1.935.37c.43-2.983,2.245-15.835,3.409-25.99a42.528,42.528,0,0,1,7.527-19.519l1.237,1.361C850.736,586.713,846.422,605.669,846.422,605.669Z" transform="translate(-667.583 -462.403)" opacity="0.1"/>
    <path id="Path_1986" data-name="Path 1986" d="M884.652,309.676l-.86,4.243-4.23,7.108-5.215-2.228s-7.1-7.426-2.634-8.486a3.948,3.948,0,0,0,1.479-.658,3.06,3.06,0,0,0,1.155-2.559,7.846,7.846,0,0,0-.718-3.041l9.123-2.865a14.64,14.64,0,0,0-.645,3.695c-.071,2.486.86,3.71,1.611,4.3A2.741,2.741,0,0,0,884.652,309.676Z" transform="translate(-689.796 -240.744)" fill="#fbbebe"/>
    <path id="Path_1987" data-name="Path 1987" d="M895.114,301.19a14.651,14.651,0,0,0-.645,3.695,6.957,6.957,0,0,1-.531.566,7.218,7.218,0,0,1-7.213,1.645,7.848,7.848,0,0,0-.725-3.041Z" transform="translate(-702.168 -240.744)" opacity="0.1"/>
    <path id="Path_1988" data-name="Path 1988" d="M880.58,269.433a7.181,7.181,0,1,1-2.1-5.111A7.215,7.215,0,0,1,880.58,269.433Z" transform="translate(-686.586 -210.155)" fill="#fbbebe"/>
    <path id="Path_1989" data-name="Path 1989" d="M884.652,338.837l-.86,4.243-4.23,7.108-5.215-2.228s-7.1-7.426-2.634-8.486a3.947,3.947,0,0,0,1.479-.658c-.8,2.211,2.516,6.811,2.516,6.811.387.57,1.273.215,1.273.215,2.14-.325,6.078-6.478,6.721-7.5A2.74,2.74,0,0,0,884.652,338.837Z" transform="translate(-689.796 -269.905)" opacity="0.1"/>
    <path id="Path_1990" data-name="Path 1990" d="M868.4,521.324c-1.256.286-8.2,1.824-10.839,1.439-2.9-.43-8.536-.706-8.536-.706s-3.589.194-4.695-.312v-.215l2.047-2.452s19.8-1.486,21.291,0A4.223,4.223,0,0,1,868.4,521.324Z" transform="translate(-669.459 -411.256)" opacity="0.1"/>
    <path id="Path_1991" data-name="Path 1991" d="M837.413,346.082s-3.731-5.161-2.325-7.183l-6.3,2.581s-3.794-.46-5.161,5.2a9.859,9.859,0,0,0-.234,2.873,8.5,8.5,0,0,1-1.039,4.3c-1.555,3.112-1.2,10.256,1.981,10.968s4.312.353,4.312.353-.43,12.942-2.262,14.428,4.688,1.131,4.688,1.131,5.637.284,8.538.708,11.033-1.486,11.033-1.486-1.2-5.445-1.628-8.91-1.417-10.845-1.417-10.845l7.213-9.772s1.273-5.906-3.183-8.523a50.351,50.351,0,0,0-6.131-3.258s-4.478,7.291-6.811,7.643C838.686,346.293,837.8,346.65,837.413,346.082Z" transform="translate(-651.503 -270.148)" fill="#269a3e"/>
    <path id="Path_1992" data-name="Path 1992" d="M852.792,382.74a10.638,10.638,0,0,0,.355,3.254c.424.918,1.981,6.022,1.981,6.022H851.59s1.91-2.052,1.77-3.043S852.792,382.74,852.792,382.74Z" transform="translate(-675.158 -304.756)" opacity="0.1"/>
    <path id="Path_1993" data-name="Path 1993" d="M864.721,428.452s-7.811-1.91-8.538-3.536-2.733-5.267-2.733-5.267l.824-1.11,3.8,2.981s4.516,3.607,6.65,3.961S864.721,428.452,864.721,428.452Z" transform="translate(-676.618 -332.857)" fill="#fbbebe"/>
    <path id="Path_1994" data-name="Path 1994" d="M864.721,428.452s-7.811-1.91-8.538-3.536-2.733-5.267-2.733-5.267l.824-1.11,3.8,2.981s4.516,3.607,6.65,3.961S864.721,428.452,864.721,428.452Z" transform="translate(-676.618 -332.857)" opacity="0.05"/>
    <path id="Path_1995" data-name="Path 1995" d="M885.76,421.708v4.237h-.68a19.8,19.8,0,0,0-9.621,2.492l-1.274.706-.342.191-2.194-4.946,2.052-1.839h.105a12.269,12.269,0,0,0,3.592-.08,5.838,5.838,0,0,1,4.529-.581c1.267.325,2.351,1.744,3.579,1.3Z" transform="translate(-690.903 -335.307)" fill="#fbbebe"/>
    <path id="Path_1996" data-name="Path 1996" d="M912.79,368.453l1.413,1.592V373.9s-1.2,12.164-5.02,13.508-10.637-.779-10.637-.779-1.761-4.667-.938-4.946,7.28-1.987,7.28-1.987-.09-7.136,1.323-9.258c0,0-.918-6.647,2.265-6.789S912.79,368.453,912.79,368.453Z" transform="translate(-711.108 -289.768)" opacity="0.1"/>
    <path id="Path_1997" data-name="Path 1997" d="M913.795,368.453l1.415,1.592V373.9s-1.2,12.164-5.022,13.508-10.637-.779-10.637-.779-1.761-4.667-.935-4.946,7.28-1.987,7.28-1.987-.093-7.136,1.323-9.258c0,0-.921-6.647,2.262-6.789S913.795,368.453,913.795,368.453Z" transform="translate(-711.897 -289.768)" fill="#269a3e"/>
    <path id="Path_1998" data-name="Path 1998" d="M883.987,272.4a2.844,2.844,0,0,0-.161-1.379,1.05,1.05,0,0,0-1.123-.645c-.6.142-.86.929-1.458,1.118a1.165,1.165,0,0,1-1.29-.662,3.3,3.3,0,0,1-.245-1.54v-1.772a2.933,2.933,0,0,0-.417-1.843,3.254,3.254,0,0,0-2.426-.877,2.058,2.058,0,0,0-1.385.557,1.783,1.783,0,0,1-1.456.518A1.254,1.254,0,0,1,873.01,265v-.022a7.213,7.213,0,1,1,10.723,9.574A19.43,19.43,0,0,0,883.987,272.4Z" transform="translate(-691.971 -210.061)" opacity="0.1"/>
    <path id="Path_1999" data-name="Path 1999" d="M867.2,249.694a1.264,1.264,0,0,1-1.017-.88c-.058-.228-.043-.471-.11-.7-.165-.557-.759-.845-1.157-1.269a2.842,2.842,0,0,1-.181-3.252A2.35,2.35,0,0,1,867,242.246c.572.1,1.075.505,1.647.544a3.324,3.324,0,0,0,1.576-.51,5.94,5.94,0,0,1,3.918-.348,2.258,2.258,0,0,1,1.075.544,9.433,9.433,0,0,1,.574.807,4.481,4.481,0,0,0,2.89,1.194c1.052.189,2.241.606,2.581,1.617a4.227,4.227,0,0,1-.125,2.095.632.632,0,0,0,.028.43c.166.271.576.157.886.215.6.127.748.895.772,1.505q.037,1.045.056,2.092a2.665,2.665,0,0,1-.062.774,2.733,2.733,0,0,1-.6.974l-2.336,2.807c-1.037,1.243-2.136,2.693-1.936,4.3a1,1,0,0,1-1.234-.718,3.213,3.213,0,0,1,.077-1.594,19.521,19.521,0,0,0,.374-2.764,2.836,2.836,0,0,0-.161-1.376,1.05,1.05,0,0,0-1.123-.645c-.606.142-.86.929-1.458,1.118a1.165,1.165,0,0,1-1.29-.662,3.292,3.292,0,0,1-.245-1.538v-1.774a2.933,2.933,0,0,0-.417-1.843,3.255,3.255,0,0,0-2.426-.877,2.058,2.058,0,0,0-1.383.557A1.786,1.786,0,0,1,867.2,249.694Z" transform="translate(-685.146 -194.087)" fill="#7c5c5c"/>
    <path id="Path_2000" data-name="Path 2000" d="M885.3,381.92l2.215,9.1S889.261,391.008,885.3,381.92Z" transform="translate(-701.618 -304.112)" opacity="0.1"/>
    <path id="Path_2001" data-name="Path 2001" d="M913.082,374.85s-2.9,4.749-1.768,9.661l.54.039S910.89,382.276,913.082,374.85Z" transform="translate(-721.832 -298.563)" opacity="0.1"/>
    <path id="Path_2002" data-name="Path 2002" d="M929,498.9s3.561-1.179,3.819,1.555C932.828,500.453,932.157,498.579,929,498.9Z" transform="translate(-735.92 -395.734)" opacity="0.1"/>
    <path id="Path_2003" data-name="Path 2003" d="M858.968,426.81s-.708,4.946.566,6.931a15.511,15.511,0,0,1-6.224.85l-.43-7.781Z" transform="translate(-676.17 -339.348)" opacity="0.1"/>
    <path id="Path_2004" data-name="Path 2004" d="M874.185,432.384l-.342.191-2.194-4.946,2.052-1.839h.105C873.775,426.035,873.2,430.287,874.185,432.384Z" transform="translate(-690.903 -338.548)" opacity="0.1"/>
    <path id="Path_2005" data-name="Path 2005" d="M851.5,425.83s-.708,4.946.566,6.929a15.466,15.466,0,0,1-6.224.85l-2.475-7.779Z" transform="translate(-668.706 -338.579)" fill="#269a3e"/>
    <path id="Path_2006" data-name="Path 2006" d="M791.539,788.318a1.6,1.6,0,0,1-1.374,1.4c-1.921.286-6.547,1.017-7.714,1.574-1.486.708-7.355.215-7.639-.495a1.123,1.123,0,0,1,.1-.86,2.267,2.267,0,0,1,.948-1.019,2.528,2.528,0,0,1,.43-.189c1.105-.368,3.194-1.151,3.757-1.972a23.969,23.969,0,0,0,3.346-3.508,1.7,1.7,0,0,1,1.359-.847c.619-.028,1.31.284,1.594,1.641,0,0,3.391,1.936,4.3.239,0,0,.142,2.606.705,3.32h0A.946.946,0,0,1,791.539,788.318Z" transform="translate(-614.857 -618.466)" fill="#a27772"/>
    <path id="Path_2007" data-name="Path 2007" d="M791.539,807.3a1.6,1.6,0,0,1-1.374,1.4c-1.921.286-6.547,1.017-7.714,1.574-1.486.708-7.355.215-7.639-.495a1.123,1.123,0,0,1,.1-.86,2.267,2.267,0,0,1,.948-1.019c.957.645,3.082,1.256,7.755.527a34.24,34.24,0,0,0,7.742-1.843h0A.946.946,0,0,1,791.539,807.3Z" transform="translate(-614.857 -637.452)" opacity="0.1"/>
    <g id="Group_28" data-name="Group 28" transform="translate(179.162 51.007)" opacity="0.1">
      <path id="Path_2008" data-name="Path 2008" d="M942.407,266.161v-.034a6.328,6.328,0,0,0,.215-1.606,10.57,10.57,0,0,1-.215,1.29A.781.781,0,0,0,942.407,266.161Z" transform="translate(-925.591 -262.967)"/>
      <path id="Path_2009" data-name="Path 2009" d="M876.975,267.113a2.045,2.045,0,0,1,.174.809,2.438,2.438,0,0,0-.174-1.127,1.045,1.045,0,0,0-1.12-.645c-.607.142-.86.929-1.46,1.118a1.168,1.168,0,0,1-1.29-.662,3.272,3.272,0,0,1-.245-1.54v-1.772a2.933,2.933,0,0,0-.417-1.843,3.259,3.259,0,0,0-2.426-.88,2.06,2.06,0,0,0-1.385.559,1.787,1.787,0,0,1-1.458.518,1.26,1.26,0,0,1-1.015-.878c-.058-.228-.043-.473-.11-.7-.166-.555-.759-.845-1.157-1.267a2.317,2.317,0,0,1-.6-1.505,2.411,2.411,0,0,0,.6,1.813c.4.43.991.712,1.157,1.267.067.215.052.471.11.7a1.26,1.26,0,0,0,1.015.877,1.787,1.787,0,0,0,1.458-.518,2.06,2.06,0,0,1,1.385-.559,3.253,3.253,0,0,1,2.426.88,2.951,2.951,0,0,1,.417,1.843v1.772a3.255,3.255,0,0,0,.245,1.538,1.171,1.171,0,0,0,1.29.665c.593-.189.86-.976,1.46-1.118A1.086,1.086,0,0,1,876.975,267.113Z" transform="translate(-864.285 -257.3)"/>
      <path id="Path_2010" data-name="Path 2010" d="M932.515,292.208a2.72,2.72,0,0,1-.6.972l-2.336,2.807c-.983,1.181-2.022,2.548-1.935,4.056a6.958,6.958,0,0,1,1.935-3.738l2.336-2.807a2.72,2.72,0,0,0,.6-.972,2.684,2.684,0,0,0,.062-.776A2.042,2.042,0,0,1,932.515,292.208Z" transform="translate(-914.012 -284.341)"/>
      <path id="Path_2011" data-name="Path 2011" d="M921.717,326.728a1.651,1.651,0,0,1-.071-.379,1.9,1.9,0,0,0,.071.7,1,1,0,0,0,1.234.716,2.97,2.97,0,0,1-.026-.31A1,1,0,0,1,921.717,326.728Z" transform="translate(-909.305 -311.5)"/>
    </g>
    <path id="Path_2012" data-name="Path 2012" d="M812.69,789.36s.74,1.29,3.419.155" transform="translate(-644.624 -623.928)" opacity="0.1"/>
    <path id="Path_2013" data-name="Path 2013" d="M918,790.82s2.31,2.721,5.222.893" transform="translate(-727.286 -625.074)" opacity="0.1"/>
    <path id="Path_2014" data-name="Path 2014" d="M943.106,641.23s-1.632,1.019-1.684,1.6.843-.43.843-.43Z" transform="translate(-745.669 -507.655)" opacity="0.1"/>
    <path id="Path_2015" data-name="Path 2015" d="M941.564,677.59a3.413,3.413,0,0,1-2.011.785c-1.221.054-1.118,1.645-.32,1.168A20,20,0,0,0,941.564,677.59Z" transform="translate(-743.482 -536.195)" opacity="0.1"/>
    <path id="Path_2016" data-name="Path 2016" d="M948.519,682.34s-.783,3.848-1.419,3.106" transform="translate(-750.127 -539.924)" opacity="0.1"/>
    <path id="Path_2017" data-name="Path 2017" d="M241.881,356.034s4.914,1.348,7.28-.445,3.392-1.217,3.392-1.217,5.641-.312,6.106-1.645-2.163-6.176-2.163-6.176c-.187-.43-.46-.976-.583-.976l.026-2.043h0l.817-8.549c1.886-4.837.034-11.086.034-11.086l-.338-1.551a3.923,3.923,0,0,1,.32-2.581l3.426-6.882a10.29,10.29,0,0,1,.645-1.32c.215-.394.5-.88.86-1.462.105-.168.215-.342.335-.525.415-.645.918-1.376,1.527-2.219a18.162,18.162,0,0,0,2.727-6.667l.183.606h.041l.049.011h.082l.088.015h.032l1.054,13.411a15.989,15.989,0,0,0,1.985,8.125l-.265,11.547a24.976,24.976,0,0,1-.794,7.968l-.83,1.873a2.252,2.252,0,0,0-1.224,1.7,21.042,21.042,0,0,1-1.619,4.364c-.564.714-1.787,2.643-1.787,2.643s-.576,1.862-.219,2.559,3.342.626,3.342.626c3.409.755,6.022-1.075,5.856-2.336s.531-1.581.531-1.581c1.355-.43,1.224-1.348,1.224-1.348A8.439,8.439,0,0,0,273,345.382l-.215.5a7.564,7.564,0,0,1,.409-2.931l-.125.086-.039.024h-.013c.215-1.886,2.2-5.377,2.2-5.377,3.639-6.383,2.316-15.033,2.316-15.033l-.563-2.7-.032-1.017a33.953,33.953,0,0,1,.548-7.248c.2-1.058.4-2.336.553-3.744a33.1,33.1,0,0,1,1.867-7.349l.144-.026h.017c.2-.034.4-.069.6-.108h.039s.116-.628.215-1.7c.058-.682.105-1.546.105-2.54a28.574,28.574,0,0,0-1.357-8.841l.11-.157s.26-.353.736-.964h0c.873-1.11,2.232-2.8,3.908-4.7a8.051,8.051,0,0,0,2.118-6.882s-2.172-7.959-3.14-12.738a14.486,14.486,0,0,0-2.383-5.667,11.277,11.277,0,0,0,.3-2.3,8.39,8.39,0,0,0-.622-4.161,3.575,3.575,0,0,0-3.407-2.105,1.3,1.3,0,0,1-.611,0,.929.929,0,0,1-.4-.351,5.279,5.279,0,0,1-.624-4.063c.258-1.385.787-2.71,1.024-4.1a5.075,5.075,0,0,0-.755-4.032c-1.039-1.29-2.85-1.654-4.2-2.624-.948-.682-1.66-1.66-2.66-2.265a3.807,3.807,0,0,0-3.022-.146,24.167,24.167,0,0,0-5.288,1.346,14.085,14.085,0,0,0-4.609,3.353,4.376,4.376,0,0,0-1.028,1.622c-.43,1.422.411,2.936.234,4.407a8.719,8.719,0,0,1-1.228,2.882,3.734,3.734,0,0,0-.477,3.011c.6,1.523,2.566,1.845,3.994,2.656a1.219,1.219,0,0,1,.473.411c.353.615-.368,1.254-.822,1.8a2.712,2.712,0,0,0-.538,1.093,3.9,3.9,0,0,0-2.338,2.822c-.484,2.166.26,4.9.916,6.706-.716,4.024.215,5.611.9,6.22a3.452,3.452,0,0,1,1.2,2.353v.075c.045.731.123,1.46.226,2.187h0c-.024-.17-.047-.351-.06-.43a25.375,25.375,0,0,0-2.232,8.157,24.512,24.512,0,0,1-.544,2.841,15.537,15.537,0,0,0-.456,5.08l.108,1.447a.456.456,0,0,1-.292-.1l.755,1.383v2.333a8.6,8.6,0,0,1-.572,3.077c-.054.142-.112.284-.174.43a2.5,2.5,0,0,0-.254,1.267C252.3,301.053,248.576,315,248.576,315c-2.019,4.572.166,7.527.166,7.527S249.8,335.254,250,335.913s.637,8.417.637,8.417h0v.617a1.446,1.446,0,0,0-.368-.105c-1.77-.1-2.249,2.7-2.249,2.7L244.395,351s-1.654-.28-4.086,1.546S241.881,356.034,241.881,356.034Zm36.163-73.57-.011-.039-.1.058h0l-.041.024-.019.013h0l-1.669-5.89a9.781,9.781,0,0,1-.123-4.845l1.29-5.652h0v-1.359l4.1,10.929C281.736,277.175,279.3,280.743,278.043,282.463Z" transform="translate(-194.724 -184.782)" fill="url(#linear-gradient-4)"/>
    <path id="Path_2018" data-name="Path 2018" d="M378.844,557a33.87,33.87,0,0,0-2.078,7.893c-.153,1.394-.35,2.654-.544,3.7a33.8,33.8,0,0,0-.529,7.155l.032,1,.538,2.66s1.29,8.544-2.273,14.839c0,0-2.112,3.77-2.176,5.555l-1.43.553-2.89-.811s1.4-5,.942-8.512l.26-11.4a15.866,15.866,0,0,1-1.942-8.013l-1.1-14.164Z" transform="translate(-293.724 -441.539)" fill="#fdc2cc"/>
    <path id="Path_2019" data-name="Path 2019" d="M297.6,547.62s-.355,5.523-3.086,9.329a26.477,26.477,0,0,0-3.312,5.458l-3.364,6.8a3.9,3.9,0,0,0-.316,2.544l.331,1.531s1.819,6.172-.032,10.949l-.877,9.226h-5.131s-.43-7.667-.617-8.316-1.234-13.222-1.234-13.222-2.151-2.925-.163-7.439c0,0,4.484-16.893,5.684-16.6S297.6,547.62,297.6,547.62Z" transform="translate(-225.671 -434.177)" fill="#fdc2cc"/>
    <g id="Group_29" data-name="Group 29" transform="translate(60.749 113.443)" opacity="0.1">
      <path id="Path_2020" data-name="Path 2020" d="M314.59,573.294l-.329-1.531a3.871,3.871,0,0,1,.314-2.555l3.364-6.807a26.466,26.466,0,0,1,3.312-5.458c2.622-3.656,3.054-8.895,3.084-9.3l.523-.026s-.355,5.523-3.086,9.329a26.475,26.475,0,0,0-3.312,5.458l-3.364,6.8a3.9,3.9,0,0,0-.316,2.544l.331,1.531s1.819,6.172-.032,10.949l-.877,9.226h-.52l.877-9.226C316.409,579.455,314.59,573.294,314.59,573.294Z" transform="translate(-313.68 -547.62)"/>
    </g>
    <path id="Path_2021" data-name="Path 2021" d="M387.479,599.812c.065-1.785,2.176-5.555,2.176-5.555,3.574-6.3,2.273-14.839,2.273-14.839l-.551-2.663-.032-1a33.8,33.8,0,0,1,.529-7.155c.191-1.045.389-2.305.542-3.7a33.868,33.868,0,0,1,2.071-7.876l.533-.021a33.864,33.864,0,0,0-2.077,7.893c-.153,1.394-.351,2.654-.544,3.7a33.8,33.8,0,0,0-.529,7.155l.032,1,.538,2.66s1.29,8.544-2.273,14.839c0,0-2.112,3.77-2.176,5.555l-1.43.553-.3-.084Z" transform="translate(-309.902 -441.539)" opacity="0.1"/>
    <path id="Path_2022" data-name="Path 2022" d="M372.236,752.716a2.486,2.486,0,0,0,2.366-.292,7.635,7.635,0,0,0-.194,4.288c.585,2.34-5.458-1.884-5.458-1.884l1.29-2.948A2.023,2.023,0,0,0,372.236,752.716Z" transform="translate(-296.315 -594.508)" fill="#d39999"/>
    <path id="Path_2023" data-name="Path 2023" d="M372.7,752.824a2.415,2.415,0,0,0,1.921-.43,7.634,7.634,0,0,0-.194,4.288c.585,2.34-5.458-1.884-5.458-1.884l1.29-2.948a1.844,1.844,0,0,0,1.473.83C372.067,752.719,372.385,752.764,372.7,752.824Z" transform="translate(-296.33 -594.485)" opacity="0.1"/>
    <path id="Path_2024" data-name="Path 2024" d="M289.32,427.975h2.525V413.65l-1.895-.34Z" transform="translate(-227.109 -324.42)" fill="#fdc2cc"/>
    <path id="Path_2025" data-name="Path 2025" d="M289.32,427.975h2.525V413.65l-1.895-.34Z" transform="translate(-227.109 -324.42)" opacity="0.05"/>
    <path id="Path_2026" data-name="Path 2026" d="M354.725,759.972a2.517,2.517,0,0,1,2.305,1.331l.877.682.43-1.006a8.387,8.387,0,0,1,.994,5.426s.129.908-1.2,1.331c0,0-.682.325-.52,1.559s-2.4,3.054-5.749,2.306c0,0-2.925.067-3.282-.617s.228-2.5.228-2.5,1.2-1.905,1.753-2.609a21.12,21.12,0,0,0,1.594-4.3C352.316,760.217,353.88,759.224,354.725,759.972Z" transform="translate(-280.234 -600.658)" fill="#7e5659"/>
    <path id="Path_2027" data-name="Path 2027" d="M296.582,758.729l.026-2.019a9.315,9.315,0,0,1-5.258-.11s.2,2.03-.129,2.308,1.088,2.89,1.088,2.89l1.581,1.656,2.718-.989.738-2.323S296.776,758.729,296.582,758.729Z" transform="translate(-235.264 -598.213)" fill="#d39999"/>
    <path id="Path_2028" data-name="Path 2028" d="M296.582,758.729l.026-2.019a9.315,9.315,0,0,1-5.258-.11s.2,2.03-.129,2.308,1.088,2.89,1.088,2.89l1.581,1.656,2.718-.989.738-2.323S296.776,758.729,296.582,758.729Z" transform="translate(-235.264 -598.213)" opacity="0.1"/>
    <path id="Path_2029" data-name="Path 2029" d="M252.075,763.09s1.544.178,1.348,2.151.082,0,.082,0a5.655,5.655,0,0,1,2.226,1.591c.585.927,1.641-.828,1.72-1.331s.738-.712.738-.712,2.581,4.785,2.125,6.1-6,1.619-6,1.619-1.009-.568-3.331,1.2-7.146.43-7.146.43-3.931-1.641-1.542-3.441,4.011-1.527,4.011-1.527l3.557-3.428S250.337,762.991,252.075,763.09Z" transform="translate(-196.296 -603.306)" fill="#7e5659"/>
    <path id="Path_2030" data-name="Path 2030" d="M320.511,235.679c.983.6,1.682,1.564,2.613,2.237,1.325.957,3.1,1.314,4.123,2.591a5.064,5.064,0,0,1,.74,3.981c-.232,1.372-.753,2.682-1,4.05a5.244,5.244,0,0,0,.613,4.011.91.91,0,0,0,.394.346,1.29,1.29,0,0,0,.6,0,3.512,3.512,0,0,1,3.346,2.08,8.328,8.328,0,0,1,.609,4.11,8.494,8.494,0,0,1-.686,3.349c-.86,1.755-2.65,2.839-4.415,3.669a34.219,34.219,0,0,1-3.525,1.424,5.305,5.305,0,0,1-2.555.385c-1.469-.254-2.51-1.589-3.9-2.112a8.216,8.216,0,0,0-3.624-.168,3.531,3.531,0,0,1-2.936-.669c-.916-.972-.5-2.54-.034-3.792a2.7,2.7,0,0,1-1.91-4.413c.443-.54,1.151-1.17.8-1.779a1.179,1.179,0,0,0-.465-.4c-1.4-.8-3.329-1.12-3.918-2.622a3.7,3.7,0,0,1,.467-2.976,8.823,8.823,0,0,0,1.206-2.845c.172-1.454-.645-2.948-.23-4.351a4.362,4.362,0,0,1,1.009-1.6,13.841,13.841,0,0,1,4.516-3.31,23.458,23.458,0,0,1,5.192-1.329A3.672,3.672,0,0,1,320.511,235.679Z" transform="translate(-246.291 -189.019)" fill="#865a61"/>
    <path id="Path_2031" data-name="Path 2031" d="M313.8,337.751s-4.114-.215-4.893,3.293,1.688,8.531,1.688,8.531Z" transform="translate(-249.064 -269.44)" fill="#fdc2cc"/>
    <path id="Path_2032" data-name="Path 2032" d="M313.8,337.751s-4.114-.215-4.893,3.293,1.688,8.531,1.688,8.531Z" transform="translate(-249.064 -269.44)" opacity="0.05"/>
    <path id="Path_2033" data-name="Path 2033" d="M320,317.151l1.559,1.234,7.275.325,4.542-3.118,4.62-7.927a5.711,5.711,0,0,1-4.392-4.495,9.841,9.841,0,0,1-.09-3.755s-7.407-3.835-6.5,2.151a8.126,8.126,0,0,1,.069,2.224,3.149,3.149,0,0,1-3.832,2.845l-1.305,2.013-1.495,4.946Z" transform="translate(-257.892 -238.401)" fill="#fdc2cc"/>
    <path id="Path_2034" data-name="Path 2034" d="M352.377,301.551a8.129,8.129,0,0,1,.069,2.224,6.566,6.566,0,0,0,6.518-.611,9.84,9.84,0,0,1-.09-3.755S351.468,295.575,352.377,301.551Z" transform="translate(-283.245 -238.396)" opacity="0.1"/>
    <circle id="Ellipse_539" data-name="Ellipse 539" cx="6.562" cy="6.562" r="6.562" transform="translate(65.368 52.59)" fill="#fdc2cc"/>
    <path id="Path_2035" data-name="Path 2035" d="M319.3,346.225c.159,0,.316.024.473.039.86.086,4.454.28,6.5-2.166,2.29-2.736,5.34-6.114,5.465-6.252l3.1.938s-2.456-.873-4.086,3.695a4.731,4.731,0,0,0,1.6,5.443,4.917,4.917,0,0,0,2.03.86.011.011,0,0,1,0,.011v2h0l-1.269,5.592a9.693,9.693,0,0,0,.12,4.785l1.936,6.841c-.293.2-12.3,8.37-20.323,2.729h0c.03-.245,1.022-8.273.333-12.2a27.14,27.14,0,0,1-.359-3.037v-.075a3.423,3.423,0,0,0-1.176-2.323c-.723-.645-1.7-2.366-.733-6.912a16.707,16.707,0,0,1,1.075-3.275l2.69-6.08h0l2.48.049v.017c-.215.267-3.09,3.858-3.4,6.172C315.45,345.279,315.073,345.954,319.3,346.225Z" transform="translate(-252.01 -268.727)" fill="#269a3e"/>
    <path id="Path_2036" data-name="Path 2036" d="M382.129,346.584s2.426,2.08,3.379,6.8,3.075,12.562,3.075,12.562a8.014,8.014,0,0,1-2.08,6.8c-2.94,3.379-4.895,6.022-4.895,6.022l-1.935,2.852a2.428,2.428,0,0,1-1.394.985,4.707,4.707,0,0,1-3.411-.243,1.987,1.987,0,0,1-.86-2.51l.43-1s-3.985,2.512-4.331,1.125,4.635-2.772,4.635-2.772,4.114-.692,4.946-2.641c0,0,4.417-5.675,4.071-7.624l-4.267-11.435s-5.336-.705-3.516-6.7S382.129,346.584,382.129,346.584Z" transform="translate(-297.209 -275.458)" fill="#fdc2cc"/>
    <path id="Path_2037" data-name="Path 2037" d="M307.306,492.642s9.747,1.949,12.043,1.688l.247.824s3.7.828,12.063-.5q.819-.129,1.7-.29l.2-.034s.114-.619.2-1.675a29.052,29.052,0,0,0-1.417-11.794l-1.406-4.331s-8.693,5.211-14.448,4.731c-.514-.043-1.024-.084-1.538-.1-1.181-.045-3.011,0-4.2-.953l-2.495.43v7.1a8.5,8.5,0,0,1-.563,3.037c-.054.142-.11.282-.172.43A2.258,2.258,0,0,0,307.306,492.642Z" transform="translate(-247.9 -378.375)" fill="#65617d"/>
    <path id="Path_2038" data-name="Path 2038" d="M364.58,551.8v2.209s4.258.953,13.96-.824c0,0,.114-.619.2-1.675C375.767,551.987,367.559,553.136,364.58,551.8Z" transform="translate(-292.884 -437.23)" opacity="0.1"/>
    <path id="Path_2039" data-name="Path 2039" d="M307.311,544.652s9.747,1.948,12.043,1.688l.247.824v-2.209c-1.11.46-9.033-1.45-11.9-2.166-.054.142-.11.282-.172.43A2.259,2.259,0,0,0,307.311,544.652Z" transform="translate(-247.904 -430.385)" opacity="0.1"/>
    <path id="Path_2040" data-name="Path 2040" d="M417.31,534.945l.723,4.482q.819-.129,1.7-.29a29.408,29.408,0,0,1-.583-4.8l-.91-.779Z" transform="translate(-334.274 -423.14)" fill="#65617d"/>
    <path id="Path_2041" data-name="Path 2041" d="M417.78,534.495l.723,4.484q.819-.131,1.7-.29a29.406,29.406,0,0,1-.583-4.8l-.91-.781Z" transform="translate(-334.643 -422.787)" opacity="0.1"/>
    <g id="Group_30" data-name="Group 30" transform="translate(62.433 98.148)" opacity="0.05">
      <path id="Path_2042" data-name="Path 2042" d="M327.145,494.674c-.512-.043-1.024-.084-1.538-.1-1.148-.043-2.9,0-4.1-.879l.417-.073c1.2.948,3.011.908,4.2.953.514.017,1.024.058,1.538.1.168.015.34.024.514.028A9.622,9.622,0,0,1,327.145,494.674Z" transform="translate(-321.51 -489.938)"/>
      <path id="Path_2043" data-name="Path 2043" d="M388.132,494.632q.819-.129,1.7-.288l.2-.036s.114-.619.2-1.675a28.976,28.976,0,0,0-1.417-11.794l-1.325-4.086c.282-.159.43-.252.43-.252l1.407,4.331a29.054,29.054,0,0,1,1.417,11.794c-.09,1.056-.2,1.675-.2,1.675l-.2.037q-.88.159-1.7.288a53.579,53.579,0,0,1-8.764.753A55.274,55.274,0,0,0,388.132,494.632Z" transform="translate(-367.327 -476.5)"/>
      <path id="Path_2044" data-name="Path 2044" d="M359.979,559.3v.024h-.28Q359.859,559.313,359.979,559.3Z" transform="translate(-351.487 -541.493)"/>
    </g>
    <ellipse id="Ellipse_540" data-name="Ellipse 540" cx="0.368" cy="0.757" rx="0.368" ry="0.757" transform="translate(83.879 111.127)" fill="#d39999"/>
    <path id="Path_2045" data-name="Path 2045" d="M310.063,439.694a25.162,25.162,0,0,1,2.194-8.054c.022.14.077.594.1.733a21.287,21.287,0,0,1,.047,2.277l-.551,9.97.738,3.118c.693,2.469-1.873.518-1.873.518a1.527,1.527,0,0,1-1.505,1.041l-.133-1.789a15.454,15.454,0,0,1,.447-5.017,23.923,23.923,0,0,0,.533-2.8Z" transform="translate(-249.288 -343.139)" fill="#fdc2cc"/>
    <path id="Path_2046" data-name="Path 2046" d="M310.063,439.694a25.162,25.162,0,0,1,2.194-8.054c.022.14.077.594.1.733a21.287,21.287,0,0,1,.047,2.277l-.551,9.97.738,3.118c.693,2.469-1.873.518-1.873.518a1.527,1.527,0,0,1-1.505,1.041l-.133-1.789a15.454,15.454,0,0,1,.447-5.017,23.923,23.923,0,0,0,.533-2.8Z" transform="translate(-249.288 -343.139)" opacity="0.05"/>
    <path id="Path_2047" data-name="Path 2047" d="M383.9,477.977c-.467.6-.723.951-.723.951l-1.936,2.849a2.417,2.417,0,0,1-1.394.985,4.7,4.7,0,0,1-3.411-.243,1.983,1.983,0,0,1-.86-2.508l.43-1s-3.985,2.512-4.331,1.127,4.635-2.772,4.635-2.772,4.114-.693,4.946-2.643c0,0,.359-.46.86-1.166" transform="translate(-298.442 -376.044)" fill="#fdc2cc"/>
    <path id="Path_2048" data-name="Path 2048" d="M392.168,504.8s-4.712-.458-6.2-3.153l-.684,2.226s4.946,3.415,6.075,2.972Z" transform="translate(-309.133 -398.093)" fill="#65617d"/>
    <path id="Path_2049" data-name="Path 2049" d="M391.4,504.695s-4.71-.458-6.2-3.155l-.682,2.22s4.946,3.415,6.073,2.972Z" transform="translate(-308.528 -398.007)" opacity="0.1"/>
    <path id="Path_2050" data-name="Path 2050" d="M310.374,510.46s-1.65.585-1.974.26l.742,1.366,1.4-1.075Z" transform="translate(-248.787 -405.008)" fill="#65617d"/>
    <path id="Path_2051" data-name="Path 2051" d="M310.374,510.46s-1.65.585-1.974.26l.742,1.366,1.4-1.075Z" transform="translate(-248.787 -405.008)" opacity="0.1"/>
    <path id="Path_2052" data-name="Path 2052" d="M330.947,522.319V519.47l-.677,2.918Z" transform="translate(-259.252 -407.749)" opacity="0.1"/>
    <path id="Path_2053" data-name="Path 2053" d="M341.322,256.537a2.531,2.531,0,0,1-1.768.931,13.918,13.918,0,0,1-2.054,0,5.15,5.15,0,0,0-3.1.781,7.879,7.879,0,0,0-1.422,1.505c-1.329,1.624-3.174,3.144-5.269,2.974a1.366,1.366,0,0,1-.979-.413,1.571,1.571,0,0,1-.249-.89,20.355,20.355,0,0,1,.127-4.013,8.463,8.463,0,0,1,.606-2.394,8.172,8.172,0,0,1,1.458-2.082,8.919,8.919,0,0,1,2.544-2.039,4.564,4.564,0,0,1,3.183-.411c1.254.342,2.23,1.323,3.426,1.828C339.192,252.89,342.818,254.423,341.322,256.537Z" transform="translate(-262.944 -200.851)" opacity="0.1"/>
    <path id="Path_2054" data-name="Path 2054" d="M341.322,255.319a2.53,2.53,0,0,1-1.768.931,13.922,13.922,0,0,1-2.054,0,5.134,5.134,0,0,0-3.1.779,7.878,7.878,0,0,0-1.422,1.505c-1.329,1.624-3.174,3.144-5.269,2.974a1.357,1.357,0,0,1-.979-.413,1.563,1.563,0,0,1-.25-.89,20.356,20.356,0,0,1,.127-4.013,8.464,8.464,0,0,1,.607-2.394,8.115,8.115,0,0,1,1.458-2.08,8.887,8.887,0,0,1,2.544-2.041,4.564,4.564,0,0,1,3.183-.411c1.254.342,2.23,1.323,3.426,1.828C339.192,251.672,342.818,253.2,341.322,255.319Z" transform="translate(-262.944 -199.893)" fill="#865a61"/>
    <path id="Path_2055" data-name="Path 2055" d="M291.593,473.47l-.017.785-.176-.751Z" transform="translate(-228.741 -371.642)" fill="#fdc2cc"/>
    <path id="Path_2056" data-name="Path 2056" d="M291.593,473.47l-.017.785-.176-.751Z" transform="translate(-228.741 -371.642)" opacity="0.05"/>
    <g id="Group_31" data-name="Group 31" transform="translate(78.277 70.141)" opacity="0.05">
      <path id="Path_2057" data-name="Path 2057" d="M396.344,349.07c-1.822,5.994,3.488,6.7,3.488,6.7L404.1,367.2c.346,1.948-4.073,7.624-4.073,7.624a3.779,3.779,0,0,1-1.914,1.688,3,3,0,0,0,1.136-1.247s4.417-5.673,4.071-7.622l-4.267-11.437s-5.308-.7-3.488-6.7c.609-2,1.505-2.914,2.413-3.241A5.521,5.521,0,0,0,396.344,349.07Z" transform="translate(-395.184 -346.27)"/>
    </g>
    <g id="Group_32" data-name="Group 32" transform="translate(60.512 68.111)" opacity="0.1">
      <path id="Path_2058" data-name="Path 2058" d="M401,384.61a4.481,4.481,0,0,0,.86.815,4.889,4.889,0,0,0,2.03.86v.226a4.874,4.874,0,0,1-1.841-.815A4.464,4.464,0,0,1,401,384.61Z" transform="translate(-381.984 -374.334)"/>
      <path id="Path_2059" data-name="Path 2059" d="M321.478,417.6v.075a27.773,27.773,0,0,0,.37,3.047c.645,3.708-.2,11.069-.32,12.086-.069-.045-.138-.088-.215-.138.032-.245,1.024-8.273.336-12.2a27.263,27.263,0,0,1-.359-3.037v-.075a3.319,3.319,0,0,0-.578-1.645,3.344,3.344,0,0,1,.768,1.886Z" transform="translate(-318.961 -398.746)"/>
      <path id="Path_2060" data-name="Path 2060" d="M319.053,337.125l-2.1-.041a.011.011,0,0,0-.011,0l-2.688,6.078a16.754,16.754,0,0,0-1.075,3.275c-.783,3.678-.29,5.51.308,6.415-.673-.794-1.368-2.6-.5-6.667a16.579,16.579,0,0,1,1.065-3.278l2.708-6.078h0l2.48.049v.015C319.215,336.92,319.148,337,319.053,337.125Z" transform="translate(-312.577 -336.83)"/>
      <path id="Path_2061" data-name="Path 2061" d="M416.39,345.87l.037.011Z" transform="translate(-394.064 -343.926)"/>
      <path id="Path_2062" data-name="Path 2062" d="M346.59,342.445l-2.108-.634h-.011c-.125.138-3.172,3.516-5.462,6.252-2.047,2.445-5.637,2.254-6.5,2.168-.157-.017-.316-.03-.473-.041-2.351-.151-3.275-.43-3.585-1.024.441.43,1.411.645,3.389.766.159,0,.316.024.473.039.86.086,4.454.277,6.5-2.166,2.29-2.738,5.34-6.116,5.465-6.254h0l3.067.929A1.916,1.916,0,0,0,346.59,342.445Z" transform="translate(-325.036 -340.535)"/>
    </g>
    <path id="Path_2063" data-name="Path 2063" d="M283.842,775.942s-2.968.811-3.542-.462" transform="translate(-226.73 -613.033)" opacity="0.1"/>
    <path id="Path_2064" data-name="Path 2064" d="M368.917,773.026s-3.441.888-4.237-.486" transform="translate(-292.963 -610.725)" opacity="0.1"/>
    <ellipse id="Ellipse_545" data-name="Ellipse 545" cx="5.792" cy="0.979" rx="5.792" ry="0.979" transform="translate(35.619 153.021)" fill="#269a3e" opacity="0.1"/>
    <ellipse id="Ellipse_546" data-name="Ellipse 546" cx="5.792" cy="0.979" rx="5.792" ry="0.979" transform="translate(12.803 166.899)" fill="#269a3e" opacity="0.1"/>
    <ellipse id="Ellipse_547" data-name="Ellipse 547" cx="8.648" cy="1.462" rx="8.648" ry="1.462" transform="translate(3.917 154)" fill="#269a3e"/>
    <path id="Path_2117" data-name="Path 2117" d="M69.889,717.335a2.5,2.5,0,0,1-.826-1.243,1.108,1.108,0,0,1,.576-1.267,1.619,1.619,0,0,1,1.523.533,2.043,2.043,0,0,0,1.482.716,2.256,2.256,0,0,1-.7-2.112.86.86,0,0,1,.194-.43c.292-.314.826-.179,1.179.069a4.388,4.388,0,0,1,1.434,3.673,6.774,6.774,0,0,0,.022-1.505,1.548,1.548,0,0,1,.568-1.338,1.719,1.719,0,0,1,.86-.215,1.8,1.8,0,0,1,1.406.4,1.383,1.383,0,0,1-.056,1.721A5.625,5.625,0,0,1,76.1,717.5a3.209,3.209,0,0,0-1.041.991,1.016,1.016,0,0,0-.077.176H71.839A8.7,8.7,0,0,1,69.889,717.335Z" transform="translate(-60.901 -564.264)" fill="#269a3e"/>
    <ellipse id="Ellipse_548" data-name="Ellipse 548" cx="5.792" cy="0.979" rx="5.792" ry="0.979" transform="translate(215.674 161.206)" fill="#269a3e" opacity="0.1"/>
    <path id="Path_2118" data-name="Path 2118" d="M1042.91,746.6s3.3-.1,4.3-.811,5.08-1.555,5.327-.417,4.966,5.654,1.234,5.684-8.665-.581-9.659-1.187S1042.91,746.6,1042.91,746.6Z" transform="translate(-825.332 -588.96)" fill="#a8a8a8"/>
    <path id="Path_2119" data-name="Path 2119" d="M1053.837,757.164c-3.729.03-8.665-.581-9.658-1.187-.757-.46-1.058-2.114-1.159-2.877h-.11s.215,2.665,1.2,3.269,5.929,1.217,9.658,1.187c1.075,0,1.449-.392,1.428-.959C1055.05,756.95,1054.639,757.164,1053.837,757.164Z" transform="translate(-825.332 -595.466)" opacity="0.2"/>
  </g>
</svg>
