<svg xmlns="http://www.w3.org/2000/svg" width="16" height="16" viewBox="0 0 16 16">
  <path id="Path_4676" data-name="Path 4676" d="M17.222,4.778H15.444V3H6.556V4.778H4.778A1.783,1.783,0,0,0,3,6.556v.889a4.437,4.437,0,0,0,3.9,4.391,4.453,4.453,0,0,0,3.209,2.631v2.756H6.556V19h8.889V17.222H11.889V14.467A4.453,4.453,0,0,0,15.1,11.836,4.437,4.437,0,0,0,19,7.444V6.556A1.783,1.783,0,0,0,17.222,4.778ZM4.778,7.444V6.556H6.556v3.4A2.676,2.676,0,0,1,4.778,7.444Zm12.444,0a2.676,2.676,0,0,1-1.778,2.507v-3.4h1.778Z" transform="translate(-3 -3)" fill="#5a616f"/>
</svg>
