<svg id="Exit_to_app" data-name="Exit to app" xmlns="http://www.w3.org/2000/svg" width="15.612" height="15.612" viewBox="0 0 15.612 15.612">
  <path id="ic_exit_to_app_24px" d="M9.149,13.92l1.223,1.223,4.337-4.337L10.372,6.469,9.149,7.692l2.238,2.246H3v1.735h8.387ZM16.877,3H4.735A1.734,1.734,0,0,0,3,4.735V8.2H4.735V4.735H16.877V16.877H4.735V13.408H3v3.469a1.734,1.734,0,0,0,1.735,1.735H16.877a1.74,1.74,0,0,0,1.735-1.735V4.735A1.74,1.74,0,0,0,16.877,3Z" transform="translate(-3 -3)" fill="#788190"/>
</svg>
