<svg xmlns="http://www.w3.org/2000/svg" width="97.39" height="78.075" viewBox="0 0 97.39 78.075">
  <path id="ic_add_a_photo_24px" d="M12.7,12.154V1h8.469V12.154h12.7v7.436h-12.7V30.743H12.7V19.589H0V12.154Zm12.7,22.307V23.307h12.7V12.154h29.64L75.5,19.589H88.921c4.658,0,8.469,3.346,8.469,7.436V71.639c0,4.09-3.811,7.436-8.469,7.436H21.172c-4.658,0-8.469-3.346-8.469-7.436V34.461Zm29.64,33.461c11.687,0,21.172-8.328,21.172-18.589S66.733,30.743,55.046,30.743,33.875,39.071,33.875,49.332,43.36,67.921,55.046,67.921ZM41.5,49.332c0,6.581,6.055,11.9,13.55,11.9s13.55-5.317,13.55-11.9-6.055-11.9-13.55-11.9S41.5,42.752,41.5,49.332Z" transform="translate(0 -1)" fill="#dfdfdf"/>
</svg>
