<svg id="Supervisor_Account" data-name="Supervisor Account" xmlns="http://www.w3.org/2000/svg" width="15.626" height="10.838" viewBox="0 0 15.626 10.838">
  <path id="ic_supervisor_account_24px" d="M13.329,10.419a1.936,1.936,0,1,0-1.953-1.935A1.938,1.938,0,0,0,13.329,10.419Zm-5.86-.774A2.323,2.323,0,1,0,5.125,7.323,2.323,2.323,0,0,0,7.469,9.645Zm5.86,2.323c-1.43,0-4.3.712-4.3,2.129v1.742h8.594V14.1C17.626,12.68,14.759,11.968,13.329,11.968Zm-5.86-.774C5.649,11.193,2,12.1,2,13.9v1.935H7.469V14.1A3.049,3.049,0,0,1,9.321,11.41,9.682,9.682,0,0,0,7.469,11.193Z" transform="translate(-2 -5)" fill="#788190"/>
</svg>
